<?xml version="1.0" encoding="UTF-8"?>
<svg version="1.1" xmlns="http://www.w3.org/2000/svg" width="512" height="512">
<path d="M0 0 C0.96594086 0.00054382 1.93188171 0.00108765 2.92709351 0.00164795 C18.82427694 0.04267209 34.1070568 0.96742637 49.6875 4.375 C50.67363281 4.58930664 51.65976562 4.80361328 52.67578125 5.02441406 C88.29775048 13.04285864 123.00807611 28.51301818 151.10644531 52.05419922 C152.67933261 53.36817702 154.27078643 54.65615149 155.8671875 55.94140625 C168.29597919 66.06343244 180.20989269 77.40564263 189.6875 90.375 C185.54776346 94.74426649 181.01415126 98.39408843 176.25 102.0625 C175.45231201 102.67971924 174.65462402 103.29693848 173.83276367 103.93286133 C168.03647564 108.39408512 162.14796105 112.69994088 156.16796875 116.91015625 C152.17804412 119.72147586 148.24486222 122.6089537 144.3125 125.5 C143.65096924 125.98621826 142.98943848 126.47243652 142.30786133 126.97338867 C140.76721145 128.10653964 139.22727283 129.24065755 137.6875 130.375 C134.69640109 127.4074995 131.74797144 124.40504345 128.82421875 121.37109375 C97.55241048 89.16695827 55.24951281 67.12486256 9.609375 66.171875 C-40.16862456 65.69028025 -85.99997241 80.69778374 -122.1015625 116.046875 C-125.05335144 118.97600725 -127.97454333 121.93403314 -130.87939453 124.90966797 C-132.67565712 126.74632351 -134.4914972 128.56290186 -136.3125 130.375 C-137.47526042 129.51822917 -138.63802083 128.66145833 -139.80078125 127.8046875 C-140.56052246 127.24491211 -141.32026367 126.68513672 -142.10302734 126.10839844 C-143.8053063 124.85401824 -145.50745158 123.59945663 -147.20947266 122.34472656 C-151.58581581 119.11886951 -155.96398842 115.89558558 -160.34765625 112.6796875 C-164.28478997 109.79043464 -168.21458138 106.89148784 -172.13818359 103.98388672 C-173.55823229 102.93312084 -174.9803479 101.88514097 -176.40478516 100.84033203 C-178.27693222 99.46528022 -180.13965713 98.07845925 -182 96.6875 C-183.03511719 95.92050781 -184.07023437 95.15351563 -185.13671875 94.36328125 C-185.85472656 93.70714844 -186.57273437 93.05101562 -187.3125 92.375 C-187.3125 88.1142467 -184.87538426 86.11317132 -182.1875 83.0625 C-181.6519751 82.44802002 -181.1164502 81.83354004 -180.56469727 81.20043945 C-162.44909154 60.67185698 -141.17088372 43.78955072 -117.3125 30.375 C-116.67586426 30.00955078 -116.03922852 29.64410156 -115.38330078 29.26757812 C-93.94920558 17.02558561 -70.54807479 9.34498659 -46.5 4.125 C-45.46311035 3.89816528 -45.46311035 3.89816528 -44.40527344 3.66674805 C-29.630662 0.64249506 -15.03220673 -0.03194531 0 0 Z " transform="translate(255.3125,83.625)"/>
<path d="M0 0 C27.896043 34.7233199 42 86.14090994 42 130 C20.55 130 -0.9 130 -23 130 C-24.32 121.09 -25.64 112.18 -27 103 C-28.50223471 96.55620374 -30.01791094 90.28765149 -32 84 C-32.20286621 83.34628418 -32.40573242 82.69256836 -32.61474609 82.01904297 C-36.77925997 68.97067315 -42.89126561 53.43066032 -51.73168945 42.94628906 C-53 41 -53 41 -52.94995117 38.97119141 C-51.68450907 36.34534214 -50.13547422 35.20195892 -47.80078125 33.4609375 C-46.92824707 32.80311279 -46.05571289 32.14528809 -45.15673828 31.4675293 C-44.21813965 30.77699463 -43.27954102 30.08645996 -42.3125 29.375 C-41.35585449 28.65932861 -40.39920898 27.94365723 -39.41357422 27.20629883 C-33.12482616 22.51804403 -26.78153566 17.90918637 -20.3671875 13.39453125 C-17.84496593 11.61507295 -15.35895145 9.79226051 -12.8828125 7.94921875 C-11.84906494 7.18121948 -11.84906494 7.18121948 -10.79443359 6.39770508 C-9.45853177 5.40271825 -8.1253924 4.40400874 -6.79541016 3.40112305 C-2.22069923 0 -2.22069923 0 0 0 Z " transform="translate(455,187)"/>
<path d="M0 0 C4.7610472 1.55684433 8.21827951 4.22553629 12.125 7.25 C13.55008948 8.33684515 14.97590198 9.42274277 16.40234375 10.5078125 C17.14983887 11.07790039 17.89733398 11.64798828 18.66748047 12.23535156 C22.64199585 15.24223843 26.66726195 18.17970269 30.6875 21.125 C38.20736341 26.64672175 45.64075259 32.26586468 53 38 C51.55596144 42.1163398 49.48939749 45.7221709 47.31884766 49.48266602 C32.57892439 75.18157519 27.37411562 100.47471959 23 130 C1.55 130 -19.9 130 -42 130 C-42 83.34349042 -25.9900198 38.44649777 0 0 Z " transform="translate(57,187)"/>
<path d="M0 0 C3.88014936 1.52059907 5.73906562 3.86078531 8.25 7.125 C8.95640625 8.03507813 9.6628125 8.94515625 10.390625 9.8828125 C11.18726563 10.93082031 11.18726563 10.93082031 12 12 C9.27855962 15.61174918 6.47332467 18.43800395 2.9375 21.25 C1.96683594 22.02859375 0.99617187 22.8071875 -0.00390625 23.609375 C-1.48697266 24.79273438 -1.48697266 24.79273438 -3 26 C-4.8355168 27.49732735 -6.66889264 28.99728348 -8.5 30.5 C-11.32652549 32.81556106 -14.15627646 35.12652892 -16.99609375 37.42578125 C-17.96675781 38.21339844 -18.93742188 39.00101563 -19.9375 39.8125 C-20.81277344 40.52019531 -21.68804687 41.22789062 -22.58984375 41.95703125 C-24.85037361 43.8731692 -26.9393349 45.87239914 -29 48 C-28.030625 48.268125 -27.06125 48.53625 -26.0625 48.8125 C-10.64422539 53.24768126 2.5884319 59.69839848 15 70 C15.86109375 70.69738281 16.7221875 71.39476562 17.609375 72.11328125 C37.7179691 89.19309642 48.60846685 113.84773607 51.73828125 139.6328125 C52.00615963 143.07924776 52 146.54316983 52 150 C46.39 150 40.78 150 35 150 C34.84144531 148.73027344 34.68289063 147.46054687 34.51953125 146.15234375 C31.80861774 125.66655409 26.01899769 107.73184515 12 92 C11.00226563 90.86111328 11.00226563 90.86111328 9.984375 89.69921875 C-4.47775532 74.19260124 -26.00277673 65.01550501 -46.98828125 63.76171875 C-72.17973125 63.11227443 -94.85104639 71.55267946 -113.3125 88.8125 C-127.99224688 104.4352713 -135.59654015 123.44186868 -137.60546875 144.54296875 C-138 148 -138 148 -139 150 C-144.61 150 -150.22 150 -156 150 C-154.84968175 118.07866867 -142.8956297 92.25042721 -119.45654297 70.31298828 C-104.97866587 57.26202901 -84.2176878 48.42860525 -64.8515625 46.72265625 C-55.9184519 45.79602823 -51.49084096 43.0313989 -45 37 C-42.85064246 35.14604204 -40.6736561 33.32535419 -38.5 31.5 C-37.38527129 30.55225429 -36.27068592 29.60433997 -35.15625 28.65625 C-31.69566151 25.72805974 -28.15134734 22.91171733 -24.59765625 20.09765625 C-21.49923521 17.59562302 -18.467937 15.02108855 -15.4375 12.4375 C-10.40066458 8.14461649 -5.27771967 3.99579293 0 0 Z " transform="translate(308,185)"/>
<path d="M0 0 C5.61 0 11.22 0 17 0 C17.495 7.425 17.495 7.425 18 15 C20.6915625 15.7734375 20.6915625 15.7734375 23.4375 16.5625 C33.038737 19.77422121 41.41934066 26.24035785 46.21875 35.30078125 C49.14613624 41.68875623 50 45.77073233 50 53 C44.39 53 38.78 53 33 53 C32.01 49.04 32.01 49.04 31 45 C27.85370609 38.82842348 23.24076223 35.54348463 16.83203125 33.2109375 C8.94849752 31.11796394 0.99569379 31.70482633 -6.1796875 35.69921875 C-10.72185884 38.9450193 -14.6914287 43.50400054 -16 49 C-16.65738213 54.42340255 -16.38988069 58.7555276 -13.31640625 63.37109375 C-6.64597302 71.62501261 0.99894464 73.55279645 11.25 74.75 C21.4613318 76.17765065 32.24805596 81.29766715 38.9140625 89.296875 C45.01636767 98.04629885 49.24771292 107.05175848 48 118 C45.30930923 130.16192227 40.27780749 139.72063899 30 147 C21.48101266 152 21.48101266 152 17 152 C17 155.96 17 159.92 17 164 C11.39 164 5.78 164 0 164 C0 160.7 0 157.4 0 154 C-0.72703125 153.92523438 -1.4540625 153.85046875 -2.203125 153.7734375 C-12.92538388 152.37129595 -23.72332405 148.36461034 -31 140 C-37.28155028 131.38861242 -40.32306665 124.66119939 -40 114 C-34.72 114 -29.44 114 -24 114 C-23.46375 115.505625 -22.9275 117.01125 -22.375 118.5625 C-19.29459556 126.17734593 -15.41929331 130.81438261 -7.9296875 134.2734375 C-0.41908823 137.10131496 7.92097783 137.10724887 15.4375 134.3125 C19.43031726 132.50165499 22.18212734 130.41560323 25 127 C25.50917969 126.38511719 26.01835937 125.77023437 26.54296875 125.13671875 C29.45381161 120.86800281 30.37581918 115.69191415 29.6640625 110.59375 C27.8497928 104.36119998 24.60275137 99.4899015 19.2421875 95.78515625 C14.11963019 93.12343529 8.82403875 92.44120577 3.1875 91.625 C-8.64809401 89.87522151 -19.13673571 85.37064895 -27 76 C-33.41704767 65.34553477 -35.83867692 55.24022987 -33.38671875 42.91796875 C-29.94074712 32.30680499 -22.80675886 24.19483904 -13 19 C-8.51156765 16.87687462 -5.06855476 16 0 16 C0 10.72 0 5.44 0 0 Z " transform="translate(251,264)"/>
</svg>
