<?xml version="1.0" encoding="UTF-8"?>
<svg version="1.1" xmlns="http://www.w3.org/2000/svg" width="512" height="512">
<path d="M0 0 C1.61408609 -0.00576172 1.61408609 -0.00576172 3.26077998 -0.01163983 C5.0252968 -0.01034011 5.0252968 -0.01034011 6.82546043 -0.00901413 C8.07970546 -0.01198525 9.33395049 -0.01495637 10.62620294 -0.01801753 C14.10535829 -0.02607461 17.58449299 -0.02787638 21.06365657 -0.028615 C24.81705766 -0.03046783 28.57044809 -0.03801637 32.323843 -0.04475021 C40.53063387 -0.05832536 48.73741984 -0.06435711 56.94422007 -0.06876087 C62.07063367 -0.07152495 67.19704539 -0.07576263 72.32345772 -0.08026505 C86.5225373 -0.09245715 100.72161537 -0.10275625 114.92070007 -0.10614014 C115.82928155 -0.1063597 116.73786303 -0.10657927 117.67397728 -0.10680549 C118.58471071 -0.10702377 119.49544413 -0.10724204 120.43377554 -0.10746694 C122.27921144 -0.1079104 124.12464734 -0.10835696 125.97008324 -0.10880661 C127.34317788 -0.10913875 127.34317788 -0.10913875 128.7440118 -0.10947761 C143.57049713 -0.11342404 158.39693326 -0.13087361 173.22339959 -0.15416613 C188.45279008 -0.1778981 203.68215591 -0.19034284 218.91156518 -0.19150805 C227.45933358 -0.19242383 236.00703788 -0.19815152 244.55478859 -0.21632767 C251.83477717 -0.23175364 259.11468185 -0.23683445 266.39468367 -0.22858956 C270.10643279 -0.22469174 273.81801311 -0.22556993 277.52974129 -0.23964691 C281.56105248 -0.25479553 285.59198587 -0.24649361 289.623312 -0.23606491 C290.78627222 -0.24412132 291.94923244 -0.25217772 293.14743388 -0.26047826 C305.27097157 -0.18729704 315.2846091 2.38531136 324.35533714 10.63142776 C325.09783714 11.45642776 325.84033714 12.28142776 326.60533714 13.13142776 C327.28596214 13.87392776 327.96658714 14.61642776 328.66783714 15.38142776 C333.53904877 22.29540556 335.72670427 29.24177799 335.73955822 37.63681507 C335.74191045 38.2915355 335.74426268 38.94625593 335.74668619 39.62081638 C335.75336569 41.82404155 335.75291828 44.0272076 335.75250816 46.23044205 C335.75580745 47.8223533 335.75953315 49.41426372 335.76364964 51.00617307 C335.77367051 55.38830926 335.77738658 59.77043174 335.78003895 64.15257776 C335.78394176 68.87601261 335.79352015 73.59943661 335.80225182 78.32286453 C335.82201726 89.7340285 335.83208271 101.14519336 335.84097961 112.55637017 C335.84536253 117.92993058 335.85072934 123.30349001 335.85596848 128.67704964 C335.87298112 146.53990506 335.8874752 164.40275986 335.89471722 182.26562214 C335.89662712 186.90147337 335.89854745 191.5373246 335.90050316 196.17317581 C335.9009869 197.32539631 335.90147064 198.4776168 335.90196904 199.66475307 C335.910269 218.32919339 335.93560522 236.99356961 335.96808384 255.65798194 C336.00115615 274.81978326 336.01916615 293.981552 336.02236146 313.14338201 C336.02452643 323.90224045 336.03327325 334.66100542 336.05882263 345.41983604 C336.08053198 354.58281335 336.08857888 363.7456745 336.07885585 372.90867461 C336.07431181 377.58244596 336.07620351 382.25597764 336.09561729 386.92971611 C336.11325428 391.21276421 336.11224695 395.49539789 336.09672 399.77845042 C336.09434474 401.32360888 336.09866327 402.86879607 336.11054865 404.41391063 C336.19774392 416.50330253 334.63295962 426.56125006 326.64830589 436.06111526 C318.48133104 444.33739953 309.65164695 448.16802478 298.10533714 448.50642776 C287.52582517 448.18508745 280.34172991 444.69555393 271.68346214 438.87361526 C267.12439093 436.29322724 263.87494519 435.94712982 258.73033714 436.69392776 C252.11004211 438.59443071 247.47001462 443.1586821 242.85533714 448.06892776 C233.02586767 458.14944459 219.82376382 462.96845914 205.98033714 463.38142776 C189.65836784 463.17992197 177.09844338 456.26599689 165.60533714 445.13142776 C164.324495 443.97350713 163.03405476 442.82603075 161.73033714 441.69392776 C161.21729027 441.24146683 160.70424339 440.78900589 160.17564964 440.32283401 C154.78174012 436.23043997 149.15924465 436.41005808 142.60533714 437.13142776 C139.1444326 438.71510268 139.1444326 438.71510268 136.60533714 441.13142776 C135.75971214 441.77080276 134.91408714 442.41017776 134.04283714 443.06892776 C131.55483383 445.10701226 131.55483383 445.10701226 129.29283714 447.50642776 C118.92252171 457.63557308 106.61778548 463.03492268 92.10533714 463.38142776 C75.80669212 462.99282052 62.72853467 456.53689763 51.48033714 444.94392776 C46.30657982 439.65747474 41.27960484 436.26374273 33.60533714 436.13142776 C28.45973438 437.11514594 24.3779834 439.1465303 20.10533714 442.13142776 C11.1216272 448.33667072 2.43996908 449.14326642 -8.39466286 448.13142776 C-18.72820047 445.84798687 -27.42702898 439.87923529 -33.39466286 431.13142776 C-36.8698748 424.58070877 -38.51750724 419.05626754 -38.52888393 411.62604046 C-38.53123616 410.97132003 -38.53358839 410.31659959 -38.5360119 409.64203915 C-38.5426914 407.43881398 -38.542244 405.23564793 -38.54183388 403.03241348 C-38.54513316 401.44050223 -38.54885887 399.84859181 -38.55297536 398.25668246 C-38.56299623 393.87454627 -38.56671229 389.49242379 -38.56936467 385.11027777 C-38.57326748 380.38684292 -38.58284586 375.66341892 -38.59157753 370.939991 C-38.61134297 359.52882703 -38.62140842 348.11766217 -38.63030532 336.70648536 C-38.63468824 331.33292495 -38.64005505 325.95936552 -38.64529419 320.58580589 C-38.66230683 302.72295047 -38.67680092 284.86009567 -38.68404293 266.99723339 C-38.68595283 262.36138216 -38.68787316 257.72553093 -38.68982887 253.08967972 C-38.69031261 251.93745922 -38.69079635 250.78523873 -38.69129475 249.59810246 C-38.69959472 230.93366214 -38.72493093 212.26928592 -38.75740955 193.60487359 C-38.79048186 174.44307227 -38.80849186 155.28130353 -38.81168717 136.11947352 C-38.81385214 125.36061508 -38.82259897 114.60185011 -38.84814835 103.84301949 C-38.86985769 94.68004218 -38.87790459 85.51718103 -38.86818156 76.35418092 C-38.86363752 71.68040957 -38.86552922 67.00687789 -38.88494301 62.33313942 C-38.90258 58.05009132 -38.90157266 53.76745764 -38.88604572 49.48440511 C-38.88367045 47.93924665 -38.88798898 46.39405946 -38.89987437 44.84894489 C-38.99324165 31.90381993 -37.02762075 21.27461319 -27.95716286 11.50642776 C-27.11153786 10.72267776 -26.26591286 9.93892776 -25.39466286 9.13142776 C-24.67278786 8.45080276 -23.95091286 7.77017776 -23.20716286 7.06892776 C-16.26864767 2.28906175 -8.38008344 0.011259 0 0 Z M-4.18856782 34.26431638 C-5.95447431 36.99805129 -5.76954894 39.14222316 -5.76939297 42.38273335 C-5.77659951 43.70071323 -5.78380605 45.0186931 -5.79123098 46.37661177 C-5.78405315 47.84811286 -5.77659422 49.31961259 -5.76888466 50.79111099 C-5.77162339 52.34732728 -5.77567386 53.90354172 -5.78092831 55.45975155 C-5.79155137 59.74757768 -5.78336287 64.03519646 -5.77217782 68.32301366 C-5.76336039 72.94268364 -5.77177215 77.56232575 -5.77803993 82.18199539 C-5.78754414 91.23616361 -5.78091405 100.29025232 -5.76877699 109.34441466 C-5.7551795 119.87905937 -5.75679284 130.41368498 -5.75891032 140.94833624 C-5.76210254 159.73879392 -5.75041886 178.52921373 -5.7308445 197.31966019 C-5.71183664 215.570974 -5.70475737 233.82224343 -5.71033669 252.07356644 C-5.71638838 271.92899724 -5.71622882 291.78440851 -5.70485085 311.63983768 C-5.70364351 313.75518254 -5.70243752 315.87052741 -5.70123291 317.98587227 C-5.70062937 319.02677545 -5.70002583 320.06767864 -5.699404 321.14012434 C-5.69551757 328.49101864 -5.69592127 335.84190569 -5.69781876 343.19280052 C-5.69993633 352.14487563 -5.69474989 361.09691178 -5.6802052 370.04897589 C-5.67293946 374.62028836 -5.66890267 379.19154394 -5.67344856 383.76286125 C-5.67750328 387.94176315 -5.67242188 392.12054724 -5.65982249 396.2994312 C-5.65687697 397.81686095 -5.65735289 399.3343017 -5.66146556 400.85172874 C-5.66652365 402.90313815 -5.65823408 404.95456785 -5.64913845 407.00596333 C-5.64827167 408.14881418 -5.6474049 409.29166504 -5.64651185 410.46914774 C-5.66542014 413.28558358 -5.66542014 413.28558358 -3.39466286 415.13142776 C0.66459891 415.6421958 2.63256914 414.79253568 5.85533714 412.38142776 C18.64330724 403.36590884 33.20487218 402.19439892 48.42174339 404.77986526 C59.45500526 407.88670435 67.7121548 413.84067668 75.53893089 422.04549026 C80.42904157 426.98182127 84.90627585 429.77574879 91.85533714 430.44392776 C100.62568639 429.71306533 105.07165212 424.79834527 110.96861839 418.66658401 C123.15357193 406.95097684 137.20755442 403.61082005 153.47252464 403.85799026 C169.26192358 404.44192629 180.6793453 412.54484544 191.09752464 423.67830276 C195.79042606 428.26886677 199.68460397 429.74813823 206.12096214 430.18611526 C214.46919777 430.00234907 220.07784997 423.55322244 225.69127464 418.10799026 C238.30973644 406.21839269 251.78935436 403.49931074 268.51939964 403.81892776 C277.81221608 404.22576395 284.66707043 407.80932851 292.31627464 412.86189651 C294.82673856 414.25421865 296.74516531 414.89385649 299.60533714 415.13142776 C300.59533714 414.47142776 301.58533714 413.81142776 302.60533714 413.13142776 C303.06192154 410.34574138 303.06192154 410.34574138 302.98286057 407.00596333 C302.99068381 405.69059119 302.99850705 404.37521906 303.00656736 403.01998717 C303.00008013 401.54623295 302.99331011 400.07247995 302.98628807 398.59872818 C302.98974151 397.04408706 302.99450395 395.48944838 303.0004698 393.93481487 C303.01305285 389.64666608 303.00677645 385.35871626 302.99751115 381.07056653 C302.99075066 376.45221852 303.00118695 371.83390582 303.00945091 367.21556473 C303.02282296 358.16159694 303.01989501 349.10770357 303.01121299 340.05373282 C303.00445005 332.69777307 303.00351369 325.34183424 303.00678444 317.98587227 C303.00724414 316.94069823 303.00770384 315.89552419 303.00817747 314.81867821 C303.0091366 312.69570947 303.01010924 310.57274073 303.01109524 308.44977199 C303.01965941 288.52077447 303.00979914 268.59181829 302.99369414 248.66282754 C302.980292 231.54841771 302.98261622 214.43406892 302.99645042 197.31966019 C303.01249151 177.46568878 303.01883327 157.61175366 303.00961363 137.75777668 C303.00865794 135.64211747 303.00771483 133.52645825 303.00678444 131.41079903 C303.0060902 129.84921284 303.0060902 129.84921284 303.00538193 128.25607945 C303.00278748 120.90616092 303.00717288 113.55626531 303.0142231 106.20635033 C303.02262206 97.25316895 303.02039193 88.30006651 303.00438087 79.34689421 C302.99647617 74.77543792 302.99344377 70.20411343 303.00332832 65.632658 C303.01223058 61.45238286 303.00741675 57.27236236 302.99139567 53.09211051 C302.98802877 51.57530583 302.98978442 50.05847989 302.99702303 48.54168875 C303.00607316 46.48871813 302.99504646 44.43568774 302.98286057 42.38273335 C302.98237351 41.23972014 302.98188645 40.09670693 302.98138463 38.91905695 C302.81021511 36.15805402 302.81021511 36.15805402 301.39906752 34.26431638 C298.99465078 32.74572898 297.36797259 32.7554166 294.52812767 32.75390434 C292.9439649 32.74216948 292.9439649 32.74216948 291.32779884 32.73019755 C290.16351734 32.73688971 288.99923584 32.74358188 287.79967308 32.75047684 C286.56599369 32.74579687 285.3323143 32.74111689 284.06125069 32.7362951 C280.63037206 32.7263753 277.19998371 32.72997788 273.76913452 32.73925376 C270.07173636 32.74602351 266.37438197 32.73557336 262.67699242 32.727314 C255.43125798 32.71395222 248.1856166 32.71686524 240.93987846 32.72555192 C235.05276282 32.73231847 229.16567333 32.73324965 223.27855492 32.72998047 C222.44166846 32.72952077 221.604782 32.72906107 220.74253535 32.72858744 C219.04258314 32.7276283 217.34263093 32.72665566 215.64267874 32.72566967 C199.69048355 32.71710861 183.73834003 32.72696111 167.78615332 32.74307077 C154.08913663 32.7564746 140.39219621 32.75414671 126.69518089 32.74031448 C110.80128917 32.72427128 94.90744277 32.71793265 79.01354408 32.72715127 C77.31973585 32.72810695 75.62592761 32.72905007 73.93211937 32.72998047 C72.68193807 32.73067471 72.68193807 32.73067471 71.40650058 32.73138297 C65.52432276 32.73397665 59.64217361 32.72959375 53.76000023 32.72254181 C46.59463841 32.71414058 39.42937521 32.71637781 32.26402473 32.73238404 C28.60594566 32.74028542 24.94803121 32.74332681 21.28995323 32.73343658 C17.33020881 32.72289242 13.37073584 32.73545555 9.41100121 32.75047684 C8.2467197 32.74378467 7.0824382 32.73709251 5.88287544 32.73019755 C4.82676693 32.73802079 3.77065842 32.74584403 2.68254662 32.75390434 C1.76790768 32.7543914 0.85326874 32.75487846 -0.08908653 32.75538027 C-2.41447308 32.98045977 -2.41447308 32.98045977 -4.18856782 34.26431638 Z "  transform="translate(107.39466285705566,25.868572235107422)"/>
<path d="M0 0 C1.22994186 -0.00525696 2.45988373 -0.01051392 3.72709656 -0.01593018 C7.08880299 -0.0268497 10.4499534 -0.02432126 13.81162834 -0.01479292 C17.33621827 -0.00717649 20.86078508 -0.01424743 24.38537598 -0.01895142 C30.30334722 -0.02440322 36.221206 -0.01723254 42.13916016 -0.00292969 C48.97274555 0.01339581 55.80606239 0.00810688 62.63964128 -0.0084089 C68.51583921 -0.02204025 74.39195648 -0.0239354 80.26816511 -0.0160929 C83.77381763 -0.01142541 87.27934408 -0.01076595 90.7849884 -0.02070236 C94.69400401 -0.03100895 98.60272086 -0.01670765 102.51171875 0 C103.66826462 -0.00607269 104.82481049 -0.01214539 106.0164032 -0.0184021 C111.65020959 0.02621517 115.94466666 0.09849132 120.75585938 3.38818359 C124.64034735 7.48847646 126.49656545 11.09775394 127.13085938 16.70068359 C126.66421175 21.28938519 125.42800511 24.62920183 122.75585938 28.38818359 C118.12281561 32.07570822 114.54636104 33.50950776 108.68998718 33.52862549 C107.64276489 33.53433563 106.5955426 33.54004578 105.5165863 33.54592896 C103.79364098 33.54760574 103.79364098 33.54760574 102.03588867 33.54931641 C100.22089371 33.55676376 100.22089371 33.55676376 98.36923218 33.56436157 C95.04884879 33.57647099 91.72852839 33.58392862 88.40813041 33.58837223 C86.33278682 33.59130477 84.25744874 33.59540993 82.18210793 33.5998764 C75.686241 33.61354908 69.19038667 33.62321669 62.69450635 33.62707829 C55.20085986 33.63155774 47.70739589 33.64910115 40.2138049 33.67807889 C34.41836572 33.69971038 28.62297784 33.70978337 22.82749873 33.71111941 C19.36760585 33.71216646 15.9078846 33.71805253 12.44803429 33.73593903 C8.58663446 33.75551317 4.7254619 33.75112487 0.86401367 33.74462891 C-0.84982262 33.75845108 -0.84982262 33.75845108 -2.59828186 33.77255249 C-9.02142855 33.73866777 -13.96425935 33.44992549 -18.88867188 28.85302734 C-23.62874489 22.65447033 -24.11884787 18.16115025 -23.24414062 10.38818359 C-21.62815789 6.39001941 -19.45701021 4.19861423 -15.90441895 1.82479858 C-10.59922843 -0.25742456 -5.65097365 -0.02967165 0 0 Z "  transform="translate(231.244140625,324.61181640625)"/>
<path d="M0 0 C1.04433197 -0.0071553 2.08866394 -0.01431061 3.16464233 -0.02168274 C4.31013046 -0.02437164 5.45561859 -0.02706055 6.63581848 -0.02983093 C7.84260254 -0.03640213 9.0493866 -0.04297333 10.29273987 -0.04974365 C14.29618069 -0.06949358 18.29958144 -0.08114588 22.30305481 -0.09111023 C23.68319023 -0.09515887 25.06332545 -0.09927583 26.44346046 -0.10346031 C32.92971719 -0.12250964 39.41596257 -0.1367398 45.90224189 -0.14507228 C53.37894256 -0.1548366 60.85534655 -0.18113579 68.33194274 -0.22157317 C74.11722088 -0.25178431 79.90241424 -0.26654597 85.68776971 -0.26985329 C89.13996414 -0.2721986 92.59184153 -0.28109015 96.04395103 -0.30631447 C99.90018967 -0.33403626 103.75604164 -0.32974876 107.61238098 -0.32279968 C109.31543144 -0.34201477 109.31543144 -0.34201477 111.05288696 -0.36161804 C117.45641957 -0.31960779 122.69036596 0.23210267 127.94758606 4.14717102 C132.11673263 9.38532953 133.4948603 13.47042524 132.94758606 20.14717102 C131.13765994 25.41956449 128.71306224 29.0923786 123.94758606 32.14717102 C120.95268882 33.1454701 118.94864921 33.28218634 115.81924438 33.30107117 C114.75808411 33.30967163 113.69692383 33.31827209 112.60360718 33.32713318 C111.43941757 33.33139313 110.27522797 33.33565308 109.07575989 33.34004211 C107.23632309 33.35230835 107.23632309 33.35230835 105.35972595 33.36482239 C101.29135972 33.38968555 97.22303066 33.40634904 93.15461731 33.42060852 C91.75219402 33.42596979 90.3497708 33.43134731 88.94734764 33.43674088 C83.11139345 33.45836708 77.275442 33.47710175 71.43945789 33.48836327 C63.08660724 33.50458939 54.73422271 33.53773692 46.38154775 33.59476411 C40.50285463 33.63352608 34.62428584 33.65300342 28.74546832 33.65828383 C25.23730442 33.66192939 21.729638 33.67386403 18.22161293 33.70638657 C14.30306624 33.7421942 10.38509942 33.73808039 6.46638489 33.73066711 C4.73528221 33.75527512 4.73528221 33.75527512 2.96920776 33.78038025 C-3.95889092 33.72678271 -8.74285415 32.78223273 -14.05241394 28.14717102 C-17.68335504 23.65343204 -17.55475488 19.61173294 -17.40397644 14.02607727 C-16.76669109 8.80741834 -14.26210027 6.23883917 -10.48991394 2.83467102 C-6.92019562 0.36332756 -4.2322938 0.01990523 0 0 Z "  transform="translate(225.0524139404297,217.8528289794922)"/>
<path d="M0 0 C1.24944901 -0.00700928 2.49889801 -0.01401855 3.78620911 -0.02124023 C7.20177958 -0.0358016 10.61637737 -0.0324279 14.03189278 -0.01972389 C17.61254268 -0.00956977 21.19315211 -0.01899625 24.77380371 -0.02526855 C30.78596424 -0.03253798 36.79792797 -0.02297593 42.81005859 -0.00390625 C49.75277589 0.01786135 56.69502326 0.01080946 63.63772917 -0.01121187 C69.60736207 -0.02938612 75.57685381 -0.03191437 81.54650545 -0.0214572 C85.10808288 -0.01523331 88.66943971 -0.01435591 92.23100281 -0.02760315 C96.20236358 -0.04134384 100.17320147 -0.02227874 104.14453125 0 C105.90740227 -0.01214539 105.90740227 -0.01214539 107.70588684 -0.02453613 C113.96805944 0.04056314 117.83876376 0.2638445 122.57226562 4.51757812 C126.6536868 9.04023403 127.89591098 12.30904165 127.78320312 18.46289062 C127.29370815 23.23093429 125.04045605 26.3087049 121.50976562 29.33007812 C117.70964256 32.15995701 116.12206276 32.64365857 111.47479248 32.66474915 C109.85553612 32.6754821 109.85553612 32.6754821 108.2035675 32.68643188 C107.01393906 32.68912079 105.82431061 32.69180969 104.59863281 32.69458008 C102.72533546 32.70443687 102.72533546 32.70443687 100.81419373 32.7144928 C96.66584029 32.73426419 92.51752557 32.74589694 88.36914062 32.75585938 C86.94098135 32.75990683 85.51282227 32.76402375 84.08466339 32.76820946 C77.37415413 32.78726414 70.66365588 32.80149374 63.95312476 32.80982143 C56.20868639 32.81959087 48.46453407 32.84590127 40.72019649 32.88632232 C34.73369758 32.91649518 28.7472806 32.93129146 22.76070714 32.93460244 C19.18560556 32.93695194 15.61080945 32.94589841 12.03578949 32.97106361 C8.04492571 32.99870147 4.05443726 32.99450955 0.06347656 32.98754883 C-1.70882072 33.00676392 -1.70882072 33.00676392 -3.516922 33.02636719 C-9.80392035 32.98634479 -13.67450473 32.78728156 -18.42773438 28.51757812 C-22.05607101 24.6982764 -22.73773896 21.63478806 -22.92773438 16.51757812 C-22.73773896 11.40036819 -22.05607101 8.33687985 -18.42773438 4.51757812 C-12.80737069 -0.51555316 -7.29415434 -0.05025343 0 0 Z "  transform="translate(230.427734375,111.482421875)"/>
<path d="M0 0 C4.58145041 2.90469037 8.12684957 7.29323353 10.11328125 12.33984375 C10.97694355 19.72188361 11.24061599 26.62392031 6.6015625 32.7265625 C1.51563322 38.23965644 -3.03914286 40.95508616 -10.63671875 41.71484375 C-16.54717366 41.52235767 -22.29563697 39.58971311 -26.78515625 35.69140625 C-32.14106031 29.70846951 -33.35533552 24.29009703 -33.19921875 16.34765625 C-32.57840423 10.37231648 -30.27913394 6.76390474 -26.13671875 2.52734375 C-17.61977045 -3.20521761 -9.39712202 -4.56060671 0 0 Z "  transform="translate(181.88671875,108.66015625)"/>
<path d="M0 0 C5.19044615 3.12996658 9.16052841 7.40007553 11.44140625 13.05859375 C11.7421875 16.30078125 11.7421875 16.30078125 11.75390625 19.93359375 C11.77066406 21.12726563 11.78742188 22.3209375 11.8046875 23.55078125 C11.14721295 29.89929891 8.24349405 34.00349738 3.44140625 38.05859375 C-2.54144887 42.24250382 -8.37276671 43.07614882 -15.55859375 42.05859375 C-21.73740291 40.26131535 -26.07126907 36.40064206 -29.55859375 31.05859375 C-32.4396717 24.97961828 -32.71773068 18.7171197 -30.68359375 12.296875 C-28.01439789 6.42288806 -25.13691146 3.26096133 -19.55859375 0.05859375 C-13.55997257 -1.94094664 -5.96862045 -2.19608783 0 0 Z "  transform="translate(180.55859375,320.94140625)"/>
<path d="M0 0 C5.52013044 3.08039076 8.60528998 6.87836995 10.625 12.9375 C11.45093927 21.07143352 11.53610145 27.56504709 6.34765625 34.1640625 C2.44139041 38.18547903 -1.56989621 40.74275314 -7.30078125 41.140625 C-15.14987717 41.24926301 -19.837959 40.88503416 -26 35.75 C-31.08253758 29.73120549 -33.0951236 24.57135041 -32.75390625 16.61328125 C-31.78450791 9.76753009 -28.47349851 5.49959389 -23.25390625 1.1640625 C-16.04505584 -3.54192301 -7.71848698 -3.50735432 0 0 Z "  transform="translate(181.375,215.0625)"/>
</svg>
