<?xml version="1.0" encoding="UTF-8"?>
<svg version="1.1" xmlns="http://www.w3.org/2000/svg" width="512" height="512">
<path d="M0 0 C9.4716474 4.22947777 15.57989421 12.84385511 21.234375 21.234375 C25.4303574 19.9028883 27.26880308 18.36902303 29.796875 14.796875 C33.99262686 8.91507043 33.99262686 8.91507043 37.234375 7.234375 C40.68947624 7.13451658 43.08860109 7.29015617 45.82763672 9.54736328 C47.37825578 11.23457848 48.78330578 12.97425786 50.171875 14.796875 C50.66494141 15.41240234 51.15800781 16.02792969 51.66601562 16.66210938 C52.87230909 18.1729041 54.05572487 19.70191669 55.234375 21.234375 C57.59329148 21.16379607 57.59329148 21.16379607 60.234375 20.234375 C62.4843674 17.73321104 62.4843674 17.73321104 64.484375 14.609375 C69.39305008 7.62542867 75.46141958 0.81350697 84.234375 -0.765625 C90.93444912 -1.51007768 96.02491456 -1.30858581 101.578125 2.75390625 C105.66774659 6.40948782 107.91518326 10.25916375 108.32421875 15.796875 C107.61509643 35.03567193 96.64022406 51.49562928 86.54370117 67.10644531 C85.31445951 69.10422087 84.24695368 71.11996936 83.234375 73.234375 C83.94722656 73.80285156 84.66007813 74.37132813 85.39453125 74.95703125 C107.30902742 92.6243034 122.15181423 115.59460926 132.046875 141.859375 C132.32474854 142.58592285 132.60262207 143.3124707 132.88891602 144.06103516 C137.33378837 156.31519801 138.72901564 168.23847496 138.62548828 181.16479492 C138.60946018 183.53428314 138.62540114 185.90204865 138.64453125 188.27148438 C138.6718784 207.72816214 135.98870089 226.44071925 122.37890625 241.25390625 C100.14905667 263.06668548 62.01220848 261.7000439 33.13464355 261.44619751 C7.34314884 261.13107714 -22.09840821 259.4918752 -41.6484375 240.55078125 C-54.78641585 226.17657247 -56.15325048 209.16355976 -56.19116211 190.55883789 C-56.20296763 187.83320725 -56.25219103 185.10991486 -56.30273438 182.38476562 C-56.45447698 166.05259043 -53.41803889 150.60403287 -46.640625 135.671875 C-46.26156006 134.81529297 -45.88249512 133.95871094 -45.49194336 133.07617188 C-35.54846003 111.17355272 -21.64334527 90.42591321 -2.765625 75.234375 C-4.20064263 71.26995761 -6.10980615 67.96123333 -8.390625 64.421875 C-18.65583312 48.09591396 -28.41887039 29.98147269 -26.765625 10.234375 C-21.60873522 -0.84338823 -11.15851081 -3.08907927 0 0 Z M-8.765625 17.234375 C-8.2026158 22.70055297 -6.83582047 27.24609196 -4.703125 32.296875 C-4.24111694 33.40289062 -4.24111694 33.40289062 -3.76977539 34.53125 C0.75351504 45.08294582 6.66565028 54.82915551 13.234375 64.234375 C14.45125 63.80125 15.668125 63.368125 16.921875 62.921875 C32.31775556 57.83832953 46.51286043 56.10209015 61.96484375 62.3359375 C64.29245699 63.41841364 64.29245699 63.41841364 67.234375 63.234375 C68.64730036 61.71421312 68.64730036 61.71421312 69.87109375 59.640625 C70.60791382 58.47756836 70.60791382 58.47756836 71.35961914 57.29101562 C71.87516357 56.44732422 72.39070801 55.60363281 72.921875 54.734375 C73.45353271 53.87521484 73.98519043 53.01605469 74.53295898 52.13085938 C81.26224863 41.10690595 87.63337732 30.02261361 90.234375 17.234375 C86.47401783 17.73533321 84.65246982 18.29946594 82.296875 21.296875 C81.54277344 22.23660156 81.54277344 22.23660156 80.7734375 23.1953125 C79.21820251 25.25580149 77.69442197 27.33715685 76.171875 29.421875 C72.59145238 34.24239192 68.97481644 37.31817651 63.234375 39.234375 C53.92655782 40.13137365 47.57649201 39.16454643 40.234375 33.234375 C38.27343926 34.18904109 36.3679783 35.15117658 34.515625 36.3046875 C28.61759376 39.79694284 22.96671718 40.13511595 16.234375 39.234375 C9.4815185 37.12488748 5.49704448 31.30838031 1.48046875 25.8515625 C0.88363281 25.04976562 0.28679687 24.24796875 -0.328125 23.421875 C-0.86566406 22.67292969 -1.40320313 21.92398437 -1.95703125 21.15234375 C-4.05412911 18.92842356 -5.88341126 18.16555175 -8.765625 17.234375 Z M-1.97265625 99.19921875 C-20.07239891 119.74380683 -37.89186753 148.26226289 -37.93359375 176.46484375 C-37.93692215 177.25530594 -37.94025055 178.04576813 -37.94367981 178.86018372 C-37.9487297 180.53023703 -37.95108874 182.20030038 -37.95092773 183.87036133 C-37.95310286 186.39617046 -37.97124762 188.9215343 -37.99023438 191.44726562 C-38.03687766 204.46936211 -37.75766382 217.05311646 -28.859375 227.46484375 C-9.25712473 246.39237888 26.04267909 243.813878 51.4112854 243.38673401 C70.82587206 242.97556759 93.94388388 241.36658124 109.51953125 228.3203125 C120.54897399 216.56494041 120.65422049 200.82050695 120.609375 185.609375 C120.6081665 184.85292694 120.60695801 184.09647888 120.60571289 183.31710815 C120.55737837 172.1838124 120.19347843 161.76748041 116.234375 151.234375 C115.81575195 150.09838867 115.81575195 150.09838867 115.38867188 148.93945312 C104.25367585 119.41161866 85.14046079 91.51851212 55.76171875 78.10546875 C33.28868552 69.66278658 13.21225367 83.36507277 -1.97265625 99.19921875 Z " transform="translate(214.765625,0.765625)"/>
<path d="M0 0 C9.29514027 8.39144608 15.32314483 19.88360695 16.25 32.3671875 C16.69263831 45.89532096 13.47370107 57.31872149 5 68 C2.4724871 70.53636584 -0.15155765 72.83222439 -3 75 C-0.25764934 77.14265667 2.51892551 78.88276779 5.5625 80.5625 C22.16094465 90.52156679 32.73452609 106.00651591 37.6015625 124.59375 C39.47281742 132.94735472 39.52274922 141.26412716 39.50097656 149.79589844 C39.4999914 152.5238195 39.54202384 155.24903635 39.5859375 157.9765625 C39.59113688 159.72395254 39.59383282 161.47135223 39.59375 163.21875 C39.6183429 164.43129456 39.6183429 164.43129456 39.64343262 165.66833496 C39.6341272 166.42682739 39.62482178 167.18531982 39.61523438 167.96679688 C39.61728882 168.62707886 39.61934326 169.28736084 39.62145996 169.96765137 C38.51704717 173.57939141 37.1050027 174.81332293 34 177 C29.80377226 177.75552612 25.64851546 177.68260066 21.39453125 177.64697266 C20.11436127 177.65573425 18.83419128 177.66449585 17.51522827 177.67352295 C14.01092655 177.69628353 10.50736226 177.6874942 7.00304794 177.67162752 C3.33249706 177.65895133 -0.33799151 177.67071338 -4.00854492 177.67855835 C-10.17215285 177.68764998 -16.33546104 177.67568006 -22.49902344 177.65185547 C-29.62075541 177.62464474 -36.74177166 177.63345927 -43.86348629 177.6609875 C-49.9825728 177.68369171 -56.10144409 177.68687236 -62.22055912 177.67379415 C-65.87326346 177.6660067 -69.52563159 177.66493814 -73.17831421 177.68147659 C-77.25081636 177.69862852 -81.32208851 177.67484481 -85.39453125 177.64697266 C-86.60299713 177.65709381 -87.81146301 177.66721497 -89.05654907 177.67764282 C-97.18565637 177.574417 -97.18565637 177.574417 -101.24839783 174.70866394 C-102.90007596 172.15452176 -103.62671132 170.98847042 -103.63110352 168.0144043 C-103.64363663 167.26559494 -103.65616974 166.51678558 -103.66908264 165.74528503 C-103.64919533 164.54685722 -103.64919533 164.54685722 -103.62890625 163.32421875 C-103.63131821 162.48139847 -103.63373016 161.63857819 -103.63621521 160.7702179 C-103.63523711 158.98405259 -103.62185212 157.19785684 -103.59692383 155.41186523 C-103.56308449 152.73375796 -103.5761471 150.0590453 -103.59570312 147.38085938 C-103.57775745 124.46662175 -97.18066131 105.89565263 -81.140625 89.046875 C-75.26675869 83.4742326 -68.07168142 79.82387268 -61 76 C-62.11375 74.90365234 -62.11375 74.90365234 -63.25 73.78515625 C-74.338995 62.55439853 -80.2971201 50.92393785 -80.31469727 35.01074219 C-80.06346049 22.6718945 -75.18485695 11.85091847 -66.96875 2.75 C-48.21274233 -15.19052907 -20.18060158 -15.89222375 0 0 Z M-56 18 C-60.58064421 25.39511963 -62.92883401 32.29549838 -62 41 C-60.20260177 48.62270091 -57.07617329 54.94416524 -51 60 C-42.17179627 65.38010592 -33.56234367 67.79592139 -23.26953125 65.3515625 C-15.01894227 62.35832557 -9.09931975 57.64393031 -5.0625 49.8125 C-1.39162555 41.9107872 -0.85057134 34.78189588 -3.5625 26.4375 C-7.17369235 17.40951912 -13.11455415 11.82681864 -22 8 C-34.48909515 4.03197792 -47.62243674 8.15170897 -56 18 Z M-73 107 C-85.70417249 124.33152009 -85 136.6241543 -85 159 C-50.02 159 -15.04 159 21 159 C21.83784155 140.42434477 21.83784155 140.42434477 18 123 C17.60941406 122.01386719 17.21882813 121.02773438 16.81640625 120.01171875 C11.30139401 107.71620988 2.04802777 97.78203439 -10.4296875 92.56640625 C-33.29939119 84.0325739 -56.37516895 88.43730521 -73 107 Z " transform="translate(288,335)"/>
<path d="M0 0 C10.21398792 7.99163608 16.37030047 17.64260835 18.84375 30.44921875 C20.33081852 43.37657576 17.15528435 54.47396123 10.25 65.375 C7.46006479 68.64763829 4.51352218 71.57769527 1.25 74.375 C2.26707031 74.97634766 2.26707031 74.97634766 3.3046875 75.58984375 C10.32736631 79.87931931 16.37391504 84.62007143 22.25 90.375 C22.87648438 90.96539062 23.50296875 91.55578125 24.1484375 92.1640625 C28.19399919 96.31945844 30.86749922 101.00665082 33.5 106.125 C33.8295166 106.75607666 34.1590332 107.38715332 34.49853516 108.03735352 C40.27788304 119.82515387 40.78284773 131.64106223 40.75097656 144.52270508 C40.74999321 147.33190039 40.79196969 150.13845527 40.8359375 152.94726562 C40.84113794 154.74478603 40.8438328 156.54231582 40.84375 158.33984375 C40.86014526 159.17321762 40.87654053 160.00659149 40.89343262 160.86521912 C40.8841272 161.64695999 40.87482178 162.42870087 40.86523438 163.23413086 C40.86728882 163.91519394 40.86934326 164.59625702 40.87145996 165.29795837 C39.79188181 168.90612125 38.32438461 170.18532248 35.25 172.375 C31.29704374 173.12354242 27.3921572 173.05780239 23.37890625 173.02197266 C22.17676483 173.03073425 20.97462341 173.03949585 19.73605347 173.04852295 C16.44652122 173.06673945 13.15799749 173.06249833 9.86848068 173.04662752 C6.42214631 173.03394667 2.97587811 173.04571467 -0.47045898 173.05355835 C-6.25744682 173.06264865 -12.04411536 173.05068365 -17.83105469 173.02685547 C-24.51655001 172.99964487 -31.2012829 173.00845951 -37.88675976 173.0359875 C-43.63218036 173.05869561 -49.37737177 173.06187049 -55.12282276 173.04879415 C-58.55196946 173.04100879 -61.98075806 173.03993223 -65.40988159 173.05647659 C-69.23341586 173.06916014 -73.05548151 173.04983902 -76.87890625 173.02197266 C-78.01256622 173.03209381 -79.1462262 173.04221497 -80.3142395 173.05264282 C-87.94128954 172.94954174 -87.94128954 172.94954174 -91.95349121 170.09910583 C-93.70880614 167.43746361 -94.37441024 166.26354351 -94.36523438 163.14233398 C-94.37453979 162.34057236 -94.38384521 161.53881073 -94.39343262 160.7127533 C-94.36883972 159.42988182 -94.36883972 159.42988182 -94.34375 158.12109375 C-94.34379028 157.22439468 -94.34383057 156.32769562 -94.34387207 155.40382385 C-94.33851902 153.50669346 -94.32094539 151.60956348 -94.29199219 149.71264648 C-94.25048696 146.84613105 -94.25089928 143.98199694 -94.2578125 141.11523438 C-94.18690381 120.26910257 -89.08339311 102.99462029 -74.31054688 87.83837891 C-68.51217615 82.40104566 -61.54912611 78.41433322 -54.75 74.375 C-55.760625 73.611875 -56.77125 72.84875 -57.8125 72.0625 C-66.03580231 65.00680654 -71.69300971 54.15630093 -72.75 43.375 C-73.6438522 30.01081962 -70.42495334 17.65768404 -61.93359375 7.12109375 C-45.71279624 -10.14832097 -19.66086758 -13.28655073 0 0 Z M-49.75 21.375 C-53.9107354 27.59324192 -55.35099881 33.92261471 -54.75 41.375 C-52.6463328 49.52520777 -49.65077503 56.3973139 -42.28125 60.875 C-34.36328682 64.97371035 -27.18870818 66.76182304 -18.375 64.4375 C-11.13980211 61.76662106 -4.72994878 56.00250918 -1.125 49.1875 C1.72389345 41.39052846 1.62823584 32.42866841 -1.8125 24.875 C-6.09608926 17.55570183 -12.54538197 12.62301454 -20.75 10.375 C-33.15601395 8.9183572 -41.38461516 12.15331592 -49.75 21.375 Z M-63.75 103.375 C-77.17449759 119.68796531 -75.75 132.29605718 -75.75 154.375 C-43.41 154.375 -11.07 154.375 22.25 154.375 C22.58243617 124.82973569 22.58243617 124.82973569 8 101.625 C-2.56078901 91.59579433 -15.04485455 86.98691611 -29.5 87.1640625 C-42.63133866 88.01633688 -54.75535594 93.75149311 -63.75 103.375 Z " transform="translate(93.75,164.625)"/>
<path d="M0 0 C11.23713366 7.32116284 18.27742415 17.00327387 21.640625 29.9921875 C23.95428992 42.51712358 21.88126764 54.51597088 14.9453125 65.23046875 C11.80795163 69.61822707 8.83794179 73.48564297 4.328125 76.4921875 C5.2459375 77.06066406 6.16375 77.62914062 7.109375 78.21484375 C24.68736937 89.21607012 37.73524156 102.82603396 42.71948242 123.69018555 C43.90638257 131.10438371 43.84717339 138.5731382 43.82910156 146.06713867 C43.8281185 148.94873783 43.87008554 151.82776074 43.9140625 154.70898438 C43.91926307 156.55207784 43.9219578 158.39518045 43.921875 160.23828125 C43.93827026 161.0935289 43.95466553 161.94877655 43.97155762 162.8299408 C43.9622522 163.63170242 43.95294678 164.43346405 43.94335938 165.25952148 C43.94541382 165.95834946 43.94746826 166.65717743 43.94958496 167.37718201 C42.88117538 171.01328452 41.4246534 172.29228419 38.328125 174.4921875 C34.37501705 175.24017424 30.4703454 175.17499045 26.45703125 175.13916016 C25.25488983 175.14792175 24.05274841 175.15668335 22.81417847 175.16571045 C19.52464622 175.18392695 16.23612249 175.17968583 12.94660568 175.16381502 C9.50027131 175.15113417 6.05400311 175.16290217 2.60766602 175.17074585 C-3.17932182 175.17983615 -8.96599036 175.16787115 -14.75292969 175.14404297 C-21.43842501 175.11683237 -28.1231579 175.12564701 -34.80863476 175.153175 C-40.55405536 175.17588311 -46.29924677 175.17905799 -52.04469776 175.16598165 C-55.47384446 175.15819629 -58.90263306 175.15711973 -62.33175659 175.17366409 C-66.15529086 175.18634764 -69.97735651 175.16702652 -73.80078125 175.13916016 C-74.93444122 175.14928131 -76.0681012 175.15940247 -77.2361145 175.16983032 C-84.86656253 175.0666833 -84.86656253 175.0666833 -88.87437439 172.20758057 C-90.59808542 169.60365768 -91.29860963 168.45161181 -91.30297852 165.39892578 C-91.31551163 164.62686798 -91.32804474 163.85481018 -91.34095764 163.05935669 C-91.32769943 162.23539398 -91.31444122 161.41143127 -91.30078125 160.5625 C-91.30319321 159.695112 -91.30560516 158.827724 -91.30809021 157.93405151 C-91.30711209 156.09661292 -91.29372677 154.25914475 -91.26879883 152.421875 C-91.23490526 149.66039046 -91.24803644 146.90218717 -91.26757812 144.140625 C-91.25264011 124.50754084 -87.00206224 107.39982376 -72.98828125 92.76953125 C-66.35694219 86.25001915 -59.8427577 80.995555 -51.671875 76.4921875 C-52.24035156 76.00492187 -52.80882812 75.51765625 -53.39453125 75.015625 C-62.69991306 66.47145138 -68.96792329 55.28966863 -69.671875 42.4921875 C-69.91429751 29.61147173 -66.24367036 18.41568477 -57.765625 8.640625 C-42.67657954 -6.84253732 -18.93997186 -10.68834669 0 0 Z M-45.671875 22.4921875 C-51.07647555 29.90812041 -51.91987645 37.51895395 -50.671875 46.4921875 C-48.40571199 54.36412218 -43.36964875 59.93595315 -36.671875 64.4921875 C-29.11735999 68.30151001 -22.0488564 68.45591336 -14.109375 65.8671875 C-5.58541025 62.47174926 -1.50261968 58.1191348 2.3828125 49.859375 C5.51296667 42.02105505 4.56962057 35.12087966 1.328125 27.4921875 C-2.38765475 20.7241601 -7.94476829 15.36958928 -15.375 12.96484375 C-27.0173887 10.56904608 -37.76847937 13.43171906 -45.671875 22.4921875 Z M-62.45703125 108.4296875 C-74.20108946 122.84694566 -72.671875 138.147459 -72.671875 156.4921875 C-40.331875 156.4921875 -7.991875 156.4921875 25.328125 156.4921875 C26.14102364 130.3022135 26.14102364 130.3022135 15.328125 108.4921875 C14.585625 107.4609375 13.843125 106.4296875 13.078125 105.3671875 C3.27235146 95.11569698 -9.46753902 89.59752586 -23.546875 89.1796875 C-39.52533249 89.50412319 -51.84293935 96.90979783 -62.45703125 108.4296875 Z " transform="translate(468.671875,162.5078125)"/>
<path d="M0 0 C4.29 0 8.58 0 13 0 C13 3.63 13 7.26 13 11 C14.5159375 11.1546875 14.5159375 11.1546875 16.0625 11.3125 C20.21218208 12.03704767 23.21356263 13.22269266 27 15 C26.50269348 19.97306516 25.44697666 23.63799813 23 28 C20.40125125 27.55450021 18.19408057 27.0942677 15.8125 25.9375 C11.65120096 24.55040032 7.33922769 24.31602004 3 25 C1.15335936 26.26764367 1.15335936 26.26764367 0 28 C-0.23000198 30.52429495 -0.23000198 30.52429495 1 33 C5.08039935 36.03305649 9.32373236 38.14958866 13.9375 40.25 C19.91229035 43.09805405 24.42201789 46.34408326 28 52 C29.82768377 57.48305131 30.16358753 63.93053635 28.09375 69.390625 C25.45108791 73.82894209 22.27281032 77.12239305 18 80 C14.625 80.8125 14.625 80.8125 12 81 C12 84.96 12 88.92 12 93 C7.71 93 3.42 93 -1 93 C-1 89.37 -1 85.74 -1 82 C-2.155 81.9175 -3.31 81.835 -4.5 81.75 C-9.14042459 81.17925259 -13.09921459 79.57782577 -17 77 C-18 75 -18 75 -17.29296875 72.43359375 C-16.92816406 71.44488281 -16.56335938 70.45617187 -16.1875 69.4375 C-15.83042969 68.44621094 -15.47335938 67.45492187 -15.10546875 66.43359375 C-14 64 -14 64 -12 63 C-10.16015625 63.7421875 -10.16015625 63.7421875 -8.0625 64.875 C-2.74499068 67.71763115 1.96532132 68.99344973 8 68 C11.06724457 65.68743996 11.06724457 65.68743996 13 63 C12.68267888 60.11985154 12.68267888 60.11985154 11 57 C8.10046087 54.89876371 4.92584415 53.44712214 1.6875 51.9375 C-5.7357473 48.39649357 -12.68304696 45.03051788 -16 37 C-16.78854281 30.89360143 -16.58301948 25.212507 -13.4765625 19.79296875 C-10.64421892 16.3536944 -6.98677474 13.93832142 -3 12 C-2.01 12 -1.02 12 0 12 C0 8.04 0 4.08 0 0 Z " transform="translate(249,115)"/>
<path d="M0 0 C1.78657974 2.78706439 2.08026213 5.05128532 2.19140625 8.33984375 C1.19339547 11.66861261 -0.83884967 13.17256611 -3.4375 15.4375 C-5.98300185 16.79579886 -8.6207858 17.76826142 -11.3359375 18.734375 C-12.08912262 19.01347717 -12.84230774 19.29257935 -13.61831665 19.58013916 C-15.20440011 20.1646553 -16.79295938 20.74249236 -18.38378906 21.31396484 C-20.80366123 22.18432096 -23.21454223 23.07659905 -25.625 23.97265625 C-27.17399883 24.54037481 -28.72346372 25.10682367 -30.2734375 25.671875 C-30.98720551 25.93538757 -31.70097351 26.19890015 -32.43637085 26.47039795 C-43.35144835 30.36463407 -43.35144835 30.36463407 -48.25 28.1875 C-51.37041127 25.69117098 -52.35944527 24.03963649 -52.875 20.0625 C-52.30884126 15.37147044 -51.0411321 14.4302875 -47.4375 11.4375 C-44.67368498 9.9862606 -41.81529097 8.91296644 -38.8828125 7.8515625 C-37.65315262 7.39250015 -37.65315262 7.39250015 -36.39865112 6.92416382 C-34.67146596 6.28385484 -32.94166604 5.65055988 -31.20947266 5.02392578 C-28.56978809 4.06514716 -25.94328469 3.07528126 -23.31640625 2.08203125 C-21.63090992 1.46163227 -19.94473251 0.84307986 -18.2578125 0.2265625 C-17.08872849 -0.21700089 -17.08872849 -0.21700089 -15.89602661 -0.66952515 C-10.22713489 -2.68247311 -5.35586708 -3.43324813 0 0 Z " transform="translate(210.4375,275.5625)"/>
<path d="M0 0 C1.36740442 0.46139101 2.73168461 0.9321244 4.09301758 1.41113281 C4.82450516 1.66421204 5.55599274 1.91729126 6.30964661 2.17803955 C7.8429842 2.71184264 9.37485243 3.24988385 10.90527344 3.79199219 C13.23654332 4.61390331 15.57526299 5.41140519 17.9152832 6.20800781 C19.41254239 6.73258357 20.90930564 7.25857745 22.40551758 7.78613281 C23.44472603 8.13644562 23.44472603 8.13644562 24.50492859 8.49383545 C29.06317958 10.14191912 31.92545909 12.1679614 35.05004883 15.86425781 C35.95743024 18.89074116 35.51438016 20.61393851 35.05004883 23.86425781 C32.98907447 27.07937782 31.63655109 27.72147085 27.93530273 28.62255859 C23.18046937 28.91835381 19.87326181 27.89346233 15.44848633 26.29394531 C14.64899567 26.01584015 13.849505 25.73773499 13.02578735 25.45120239 C11.34404083 24.86171936 9.66496973 24.26455346 7.98852539 23.66015625 C5.43302611 22.74212355 2.86789505 21.85645284 0.30004883 20.97363281 C-1.33864708 20.3948113 -2.97669207 19.81414301 -4.61401367 19.23144531 C-5.3755777 18.96975555 -6.13714172 18.7080658 -6.92178345 18.43844604 C-11.62947535 16.71276571 -14.66033167 14.80965244 -17.94995117 10.86425781 C-18.85733259 7.83777446 -18.4142825 6.11457711 -17.94995117 2.86425781 C-12.95882861 -3.62420151 -7.08011334 -2.21015498 0 0 Z " transform="translate(317.949951171875,276.1357421875)"/>
<path d="M0 0 C3.04874961 2.07367919 4.71491829 3.73271159 5.53833008 7.39306641 C5.82713134 10.27079228 5.94323109 13.1085702 6 16 C6.07541016 17.47726562 6.07541016 17.47726562 6.15234375 18.984375 C6.45439706 27.92515298 6.45439706 27.92515298 3 32 C0.3259797 34.10101595 -1.04284685 33.99846976 -4.5 33.875 C-8.42109002 32.89472749 -9.76918394 32.34622409 -12 29 C-12.64123585 26.167875 -12.89696889 23.87628514 -13 21 C-13.0515625 19.78570312 -13.103125 18.57140625 -13.15625 17.3203125 C-13.46217033 5.52939273 -13.46217033 5.52939273 -10 1 C-6.84203893 -0.57898053 -3.39329364 -0.81928171 0 0 Z " transform="translate(259,279)"/>
</svg>
