<?xml version="1.0" encoding="UTF-8"?>
<svg version="1.1" xmlns="http://www.w3.org/2000/svg" width="512" height="512">
<path d="M0 0 C0.89115509 -0.00974854 1.78231018 -0.01949707 2.70046997 -0.02954102 C22.63293108 -0.20264286 41.86559565 0.06369901 61.4453125 4.23828125 C62.77079102 4.51115967 62.77079102 4.51115967 64.12304688 4.78955078 C81.8232995 8.52664185 99.09641448 14.53074618 115.4453125 22.23828125 C114.05934383 25.37233793 112.45460094 27.45662307 110.00390625 29.83984375 C109.33810547 30.4946875 108.67230469 31.14953125 107.98632812 31.82421875 C106.94508789 32.83355469 106.94508789 32.83355469 105.8828125 33.86328125 C104.50432713 35.20739994 103.12791849 36.55365278 101.75390625 37.90234375 C101.14345459 38.4948291 100.53300293 39.08731445 99.90405273 39.69775391 C98.34720468 41.19262173 98.34720468 41.19262173 97.4453125 43.23828125 C96.7853125 43.23828125 96.1253125 43.23828125 95.4453125 43.23828125 C95.105 44.04265625 95.105 44.04265625 94.7578125 44.86328125 C93.4453125 47.23828125 93.4453125 47.23828125 90.9453125 50.17578125 C87.10650567 54.87831962 86.16242095 59.09587151 85.3203125 65.05078125 C85.15273438 66.21222656 84.98515625 67.37367187 84.8125 68.5703125 C84.69132812 69.45074219 84.57015625 70.33117187 84.4453125 71.23828125 C83.11154261 70.8439214 81.77834637 70.44762192 80.4453125 70.05078125 C79.52621094 69.7775 78.60710937 69.50421875 77.66015625 69.22265625 C75.39453029 68.52892874 73.1372842 67.80753647 70.88671875 67.06640625 C31.93864313 54.25552695 -7.65841721 54.76197103 -46.5546875 67.23828125 C-47.61550537 67.57617676 -47.61550537 67.57617676 -48.69775391 67.92089844 C-66.40002097 73.69929154 -82.88027604 82.83975016 -97.5546875 94.23828125 C-98.41835937 94.89183594 -99.28203125 95.54539062 -100.171875 96.21875 C-137.8329685 125.39707324 -161.34831178 167.60587973 -168.8671875 214.48828125 C-169.12909039 216.73470602 -169.35605007 218.98538078 -169.5546875 221.23828125 C-169.62026855 221.93179688 -169.68584961 222.6253125 -169.75341797 223.33984375 C-174.10267751 271.90136033 -158.83832649 320.03538132 -127.93945312 357.60400391 C-121.09269758 365.68443085 -113.8926583 373.67494613 -105.5546875 380.23828125 C-105.03132813 380.65754883 -104.50796875 381.07681641 -103.96875 381.50878906 C-64.82363064 412.68385956 -16.07086807 427.3517775 33.8046875 421.984375 C46.72542873 420.46554615 59.07794314 417.21324077 71.4453125 413.23828125 C72.52208252 412.89240967 72.52208252 412.89240967 73.62060547 412.53955078 C89.63810037 407.25918437 104.81720982 399.13758362 118.4453125 389.23828125 C119.4765625 388.49191406 120.5078125 387.74554688 121.5703125 386.9765625 C132.79899068 378.67371442 143.78517195 369.24000486 152.4453125 358.23828125 C152.86458008 357.71492188 153.28384766 357.1915625 153.71582031 356.65234375 C185.66712775 316.53253894 199.50775633 267.32524184 193.86376953 216.46923828 C191.9596634 201.76740603 187.98139499 187.85616581 182.80078125 174 C181.4453125 170.23828125 181.4453125 170.23828125 181.4453125 168.23828125 C182.53070313 168.068125 183.61609375 167.89796875 184.734375 167.72265625 C186.17981539 167.47862086 187.62512106 167.23378663 189.0703125 166.98828125 C189.78316406 166.87871094 190.49601562 166.76914063 191.23046875 166.65625 C191.93300781 166.53378906 192.63554687 166.41132813 193.359375 166.28515625 C193.9982666 166.18041992 194.6371582 166.07568359 195.29541016 165.96777344 C200.98271762 164.0379898 205.10299622 159.83629479 209.17578125 155.59765625 C210.23622103 154.516822 211.29677106 153.43609591 212.35742188 152.35546875 C214.00566123 150.66352327 215.65133226 148.96916022 217.29467773 147.27246094 C218.89453004 145.62451593 220.50334021 143.98573733 222.11328125 142.34765625 C222.60394577 141.83523376 223.09461029 141.32281128 223.60014343 140.79486084 C224.82578914 139.55144633 226.13062423 138.38714235 227.4453125 137.23828125 C228.4353125 137.23828125 229.4253125 137.23828125 230.4453125 137.23828125 C245.05284431 170.0957424 252.89679901 203.55924393 252.8203125 239.55078125 C252.81949677 240.99969254 252.81949677 240.99969254 252.81866455 242.47787476 C252.77764041 258.37505819 251.85288613 273.65783805 248.4453125 289.23828125 C248.12385254 290.71748047 248.12385254 290.71748047 247.79589844 292.2265625 C239.90782944 327.26933773 224.79822433 360.08102215 202.4453125 388.23828125 C201.77628906 389.099375 201.10726563 389.96046875 200.41796875 390.84765625 C195.82290214 396.63213488 190.91417769 402.08251781 185.8828125 407.48828125 C184.96314697 408.48069824 184.96314697 408.48069824 184.02490234 409.49316406 C179.73853407 414.04778708 175.21897515 418.20088441 170.4453125 422.23828125 C169.83244385 422.76260742 169.2195752 423.28693359 168.58813477 423.82714844 C158.73868051 432.19543226 148.50579233 439.55682735 137.4453125 446.23828125 C136.79095215 446.63499023 136.1365918 447.03169922 135.46240234 447.44042969 C98.3180409 469.71397742 56.28657903 480.70498839 13.1328125 480.61328125 C12.16687164 480.61273743 11.20093079 480.6121936 10.20571899 480.6116333 C-5.69146444 480.57060916 -20.9742443 479.64585488 -36.5546875 476.23828125 C-37.54082031 476.02397461 -38.52695313 475.80966797 -39.54296875 475.58886719 C-79.9040294 466.5036612 -116.64003338 447.64436008 -147.5546875 420.23828125 C-148.10012207 419.75601074 -148.64555664 419.27374023 -149.20751953 418.77685547 C-189.87446338 382.59795708 -217.19742191 332.04776253 -225.5546875 278.23828125 C-225.73128906 277.11381592 -225.90789062 275.98935059 -226.08984375 274.83081055 C-227.6922781 263.52577932 -227.95392897 252.33286179 -227.9296875 240.92578125 C-227.92914368 239.95984039 -227.92859985 238.99389954 -227.92803955 237.99868774 C-227.86591587 213.92526416 -224.52553117 191.32046088 -217.5546875 168.23828125 C-217.17836182 166.9855542 -217.17836182 166.9855542 -216.79443359 165.70751953 C-208.55690552 138.96071616 -194.92991016 114.11700832 -177.5546875 92.23828125 C-176.8740625 91.36558594 -176.1934375 90.49289063 -175.4921875 89.59375 C-135.61114468 39.52251425 -77.71436459 8.40163007 -14.33520508 0.70776367 C-9.55275784 0.18827664 -4.80776951 0.04385066 0 0 Z " transform="translate(243.5546875,15.76171875)"/>
<path d="M0 0 C-1.45579734 3.30049412 -3.28863281 5.61050075 -5.75268555 8.23364258 C-6.52496994 9.05741898 -7.29725433 9.88119537 -8.09294128 10.72993469 C-11.65723809 14.46352111 -15.24073762 18.1778145 -18.84399414 21.8737793 C-20.7387201 23.82190296 -22.60899895 25.78947719 -24.46118164 27.77807617 C-40.72205167 45.2073575 -40.72205167 45.2073575 -47.41455078 46.01464844 C-51.17102874 45.73687252 -54.39566328 45.05590297 -58 44 C-76.34299602 43.56937698 -93.61965226 52.39781559 -106.65234375 64.625 C-120.49698245 78.63089073 -127.31600035 95.38396443 -127.5 115 C-127.28552644 134.38676043 -120.61066884 151.58935299 -106.84765625 165.34765625 C-90.87523485 180.22457549 -72.88659911 185.92087393 -51.4140625 185.33984375 C-32.64861446 184.42150678 -16.61167711 175.54037204 -4 162 C4.79130706 151.75091276 13.389116 137.02540978 12.89595032 123.05180359 C12.65421005 121.11053169 12.41107367 119.1694332 12.16662598 117.22850037 C11.24961131 108.602712 11.63477324 102.00992004 17.01953125 94.95263672 C21.95209504 89.35251098 27.36788099 84.3118833 32.9331665 79.35021973 C35.57286985 76.97015764 38.13994877 74.51415533 40.71484375 72.06445312 C45.74294282 67.3014366 50.84424235 62.62444242 56 58 C59 59 59 59 60.4296875 61.4921875 C73.74625433 92.66015204 75.9426372 129.24857028 63.55957031 161.12573242 C56.68896273 177.73670872 47.34655906 191.92967713 35 205 C34.31421875 205.75023437 33.6284375 206.50046875 32.921875 207.2734375 C17.48878216 223.56392439 -3.56609001 234.12141646 -25 240 C-26.17433594 240.33902344 -27.34867188 240.67804688 -28.55859375 241.02734375 C-61.90778125 248.95371142 -97.04122771 241.27339082 -126 224 C-133.64807002 219.07124376 -140.3969807 213.23737979 -147 207 C-147.75023437 206.31421875 -148.50046875 205.6284375 -149.2734375 204.921875 C-155.88579368 198.65753756 -160.98201483 191.55293285 -166 184 C-166.6290625 183.06671875 -167.258125 182.1334375 -167.90625 181.171875 C-185.20450926 153.65191709 -189.71459096 118.46055282 -182.99609375 86.97265625 C-175.20638911 54.00801225 -155.77204526 24.81143271 -127.02734375 6.4296875 C-90.97997543 -15.68494165 -37.50944109 -23.98611318 0 0 Z " transform="translate(313,141)"/>
<path d="M0 0 C2.09130859 1.48266602 2.09130859 1.48266602 4 4 C4.41779971 7.01727626 4.60479843 9.6838672 4.609375 12.703125 C4.62591125 13.54091492 4.64244751 14.37870483 4.65948486 15.24188232 C4.70797499 17.91132937 4.72933745 20.58020674 4.75 23.25 C4.77815893 25.06252868 4.80808625 26.8750308 4.83984375 28.6875 C4.91373394 33.12495309 4.96330214 37.56208977 5 42 C5.91906128 41.16855469 5.91906128 41.16855469 6.85668945 40.3203125 C7.66323975 39.59585938 8.46979004 38.87140625 9.30078125 38.125 C10.49828003 37.04605469 10.49828003 37.04605469 11.7199707 35.9453125 C17.77495549 30.77922204 23.7824526 30.39721452 31.48828125 30.59375 C37.7141535 31.31398439 42.49653335 33.41308446 46.875 37.9375 C53.0596927 45.78730227 54.04466581 53.12413866 53 63 C51.33731229 68.34486307 48.85265488 72.23634064 44.89501953 76.14257812 C44.35330109 76.67886841 43.81158264 77.21515869 43.25344849 77.7677002 C42.83981049 78.17435913 42.42617249 78.58101807 42 79 C43.13018555 79.0093457 44.26037109 79.01869141 45.42480469 79.02832031 C49.62214421 79.06822392 53.81875104 79.13398326 58.015625 79.20751953 C59.83128439 79.2357271 61.64706652 79.25694274 63.46289062 79.27099609 C66.07485789 79.29242909 68.68534974 79.33907885 71.296875 79.390625 C72.10743347 79.39185364 72.91799194 79.39308228 73.75311279 79.39434814 C77.33035837 79.48710243 79.56075866 79.68321798 82.50097656 81.80371094 C84.32128957 84.47073631 84.75088615 86.66797461 84.56217957 89.88926697 C82.34834337 98.20123252 71.28256554 105.8630562 65.23046875 111.90234375 C64.10168627 113.03180112 62.97305216 114.16140679 61.84455872 115.29115295 C59.49540344 117.64177288 57.14447305 119.99059853 54.79223633 122.33813477 C51.77478656 125.34984833 48.76190201 128.36608298 45.75030041 131.38364315 C43.42817829 133.70937067 41.10368995 136.03272141 38.77846718 138.35534859 C37.66572964 139.46741884 36.55373503 140.58023298 35.44249535 141.69379997 C33.89660164 143.24222409 32.34755509 144.78742241 30.79760742 146.33178711 C29.47692513 147.65127602 29.47692513 147.65127602 28.12956238 148.99742126 C26 151 26 151 24 152 C22.01286888 151.79989243 22.01286888 151.79989243 19.52694702 151.36029053 C0.34451899 148.31328133 -22.50367558 145.77556881 -39.36071777 157.40307617 C-47.03284583 163.00830538 -53.85813241 169.58155006 -60.5234375 176.328125 C-61.09958959 176.91097197 -61.67574167 177.49381893 -62.26935291 178.09432793 C-69.41573761 185.36842959 -76.30934622 192.86097463 -83.12396073 200.44520521 C-89.56626901 207.60469553 -96.18954529 214.58968835 -102.8203125 221.57421875 C-105.15951439 224.03914803 -107.49773221 226.50500141 -109.8343811 228.97235107 C-110.68367563 229.86896961 -110.68367563 229.86896961 -111.55012763 230.78370166 C-115.40666843 234.86550895 -119.20816701 238.99397608 -122.98959351 243.14532471 C-124.49492672 244.78701124 -126.00142447 246.42761976 -127.50839806 248.06780052 C-128.87867115 249.56850006 -130.23342669 251.08332365 -131.58750916 252.59864807 C-137.69068844 259.23374144 -143.64905519 264.03637646 -152.6875 265.6640625 C-160.45228479 265.57249664 -166.70173184 264.81632271 -173 260 C-178.61279168 254.20011527 -181.28314107 248.42088394 -181.4375 240.3125 C-181.47746094 239.17425781 -181.51742187 238.03601563 -181.55859375 236.86328125 C-180.01833492 226.21072193 -173.35473115 219.83750908 -165.62597656 212.93115234 C-164.57117234 211.96802161 -163.51792642 211.00318195 -162.46611023 210.03678894 C-160.78975234 208.49739317 -159.11222594 206.95944413 -157.42967176 205.42682052 C-153.23542524 201.60610063 -149.09137851 197.73600405 -144.97235107 193.8343811 C-144.3690142 193.26300427 -143.76567732 192.69162743 -143.14405751 192.10293615 C-140.65728163 189.74617101 -138.17200936 187.38782529 -135.68725824 185.02892566 C-128.70139103 178.40110506 -121.67925997 171.82688762 -114.51611328 165.390625 C-106.96525114 158.59214743 -99.55440773 151.66677241 -92.328125 144.5234375 C-91.74471659 143.94704623 -91.16130817 143.37065496 -90.56022072 142.77679729 C-75.16938227 127.4278864 -65.87576674 114.82686465 -65.35809326 92.50869751 C-65.49651602 84.31357181 -66.11121498 76.07471556 -67.58698273 68.00523758 C-68.67640482 61.17080432 -68.67640482 61.17080432 -66.69166279 57.73536968 C-64.90412008 55.66153371 -63.03310667 53.83152859 -61 52 C-60.07253728 51.04192123 -59.15039556 50.07864075 -58.23551941 49.10853577 C-57.35108658 48.22330734 -56.46665375 47.33807892 -55.55541992 46.42602539 C-54.81255737 45.68053436 -54.81255737 45.68053436 -54.0546875 44.91998291 C-52.44908653 43.31004993 -50.83993913 41.70372019 -49.23046875 40.09765625 C-48.10168627 38.96819888 -46.97305216 37.83859321 -45.84455872 36.70884705 C-43.49540344 34.35822712 -41.14447305 32.00940147 -38.79223633 29.66186523 C-35.77478656 26.65015167 -32.76190201 23.63391702 -29.75030041 20.61635685 C-27.42817829 18.29062933 -25.10368995 15.96727859 -22.77846718 13.64465141 C-21.66572964 12.53258116 -20.55373503 11.41976702 -19.44249535 10.30620003 C-17.89660164 8.75777591 -16.34755509 7.21257759 -14.79760742 5.66821289 C-13.47692513 4.34872398 -13.47692513 4.34872398 -12.12956238 3.00257874 C-8.58097831 -0.33440687 -4.75399582 -0.97770857 0 0 Z " transform="translate(412,16)"/>
</svg>
