<?xml version="1.0" encoding="UTF-8"?>
<svg version="1.1" xmlns="http://www.w3.org/2000/svg" width="512" height="512">
<path d="M0 0 C1.187785 -0.00445784 2.37557 -0.00891569 3.59934849 -0.01350862 C4.90564293 -0.01332426 6.21193738 -0.01313989 7.55781651 -0.01294994 C8.95856168 -0.01624973 10.35930591 -0.01997554 11.76004893 -0.02409142 C15.61385166 -0.03410686 19.46763883 -0.0378275 23.32145274 -0.04048073 C27.47641418 -0.04438524 31.6313633 -0.05396361 35.78631687 -0.0626936 C45.82410105 -0.08245584 55.86188623 -0.09252479 65.899685 -0.10142139 C70.62844762 -0.10580546 75.35720913 -0.11117203 80.08597088 -0.11641026 C95.80937912 -0.13342376 111.53278666 -0.14791678 127.2562027 -0.155159 C131.33652275 -0.15706885 135.41684279 -0.15898919 139.49716282 -0.16094494 C141.01835421 -0.16167055 141.01835421 -0.16167055 142.57027674 -0.16241082 C158.98948549 -0.17070675 175.40862128 -0.19603574 191.82779818 -0.22852562 C208.69116411 -0.26162186 225.55449299 -0.27961015 242.41789156 -0.28280324 C251.88349338 -0.28496616 261.34898886 -0.29368279 270.81455898 -0.31926441 C278.8780854 -0.34100662 286.94147965 -0.34900461 295.00503206 -0.33929763 C299.11603964 -0.33476285 303.22677476 -0.33659087 307.33774471 -0.35605907 C311.10896524 -0.37376326 314.87971601 -0.37263497 318.65094204 -0.35716178 C320.64536861 -0.35368503 322.63980052 -0.36975779 324.6341576 -0.38676625 C339.95559182 -0.27822461 353.05634307 4.769628 364.34359837 15.16937733 C373.00369097 24.2444327 379.34998152 36.35742991 379.33885288 49.04407215 C379.34091488 50.85715618 379.34091488 50.85715618 379.34301853 52.70686817 C379.33947966 54.04300428 379.33584486 55.37914015 379.33212376 56.71527576 C379.33184163 58.12471483 379.33200012 59.53415404 379.33256626 60.94359303 C379.33285324 64.76762724 379.32697249 68.59163011 379.3199923 72.41565704 C379.3137423 76.41284686 379.31315366 80.41003738 379.3119669 84.40723133 C379.30885845 91.97549726 379.30065159 99.54374876 379.29061741 107.11200833 C379.2794412 115.72862198 379.27394201 124.34523632 379.26892197 132.96185541 C379.25846859 150.68598549 379.24087853 168.41010212 379.21859837 186.13422108 C379.82065601 186.32903065 380.42271366 186.52384022 381.04301548 186.72455311 C381.84128254 186.98607166 382.6395496 187.24759022 383.46200657 187.51703358 C384.24968922 187.77371815 385.03737186 188.03040272 385.84892368 188.29486561 C416.351332 199.09903355 439.55811788 226.31211037 453.12728977 254.71283436 C454.8416275 258.51659311 456.31317169 262.37265026 457.65609837 266.32172108 C457.87878391 266.97237537 458.10146946 267.62302967 458.33090305 268.29340076 C462.38669993 281.14821459 463.77628074 294.04001458 463.65609837 307.44672108 C463.65338932 308.16245289 463.65068027 308.8781847 463.64788914 309.61560535 C463.58169346 321.19421114 462.53176382 332.00866718 459.21859837 343.13422108 C458.89117649 344.36656483 458.56375462 345.59890858 458.22641087 346.86859608 C449.06051708 378.04601581 426.50864306 405.14192923 398.29281712 420.93109608 C385.311286 427.98878905 385.311286 427.98878905 379.21859837 429.13422108 C379.22748081 430.04797504 379.23636326 430.96172901 379.24551487 431.90317249 C379.32574576 440.52491223 379.386606 449.14652614 379.42584705 457.76855373 C379.44669975 462.20098929 379.4749747 466.63311574 379.52035618 471.06537342 C379.56389714 475.34477612 379.58775291 479.62388196 379.59810734 483.90348911 C379.60548396 485.53415441 379.61988896 487.16480392 379.64151859 488.79534245 C379.67066346 491.08394885 379.67454992 493.37133711 379.67269993 495.66009998 C379.68158237 496.96137836 379.69046482 498.26265675 379.69961643 499.60336781 C379.00426013 504.70754426 376.87285524 507.87629136 372.79940891 510.97382069 C366.09666531 513.98755074 359.04398653 512.66028322 352.34576511 510.25906849 C348.84202715 508.91931359 345.37011906 507.51070791 341.90609837 506.07172108 C339.78033577 505.19438769 337.65288734 504.32390072 335.51640415 503.47298145 C334.19881414 502.94789858 332.88700365 502.4079692 331.58277988 501.85051441 C324.62683969 499.07087563 319.26902841 500.88612706 312.61312962 503.63812733 C311.36928929 504.13692372 310.12513828 504.63494591 308.88070774 505.13226795 C306.95981543 505.90926633 305.0420519 506.69215488 303.12948704 507.48944569 C288.32572935 513.62786905 278.6151361 512.9650149 264.02597141 506.95233631 C263.32641331 506.66173328 262.6268552 506.37113026 261.90609837 506.07172108 C259.78033577 505.19438769 257.65288734 504.32390072 255.51640415 503.47298145 C254.19881414 502.94789858 252.88700365 502.4079692 251.58277988 501.85051441 C244.62683969 499.07087563 239.26902841 500.88612706 232.61312962 503.63812733 C231.36928929 504.13692372 230.12513828 504.63494591 228.88070774 505.13226795 C226.95981543 505.90926633 225.0420519 506.69215488 223.12948704 507.48944569 C208.32572935 513.62786905 198.6151361 512.9650149 184.02597141 506.95233631 C182.97663425 506.51643177 182.97663425 506.51643177 181.90609837 506.07172108 C179.78033577 505.19438769 177.65288734 504.32390072 175.51640415 503.47298145 C174.19881414 502.94789858 172.88700365 502.4079692 171.58277988 501.85051441 C164.62683969 499.07087563 159.26902841 500.88612706 152.61312962 503.63812733 C151.36928929 504.13692372 150.12513828 504.63494591 148.88070774 505.13226795 C146.95981543 505.90926633 145.0420519 506.69215488 143.12948704 507.48944569 C128.32572935 513.62786905 118.6151361 512.9650149 104.02597141 506.95233631 C102.97663425 506.51643177 102.97663425 506.51643177 101.90609837 506.07172108 C99.78033577 505.19438769 97.65288734 504.32390072 95.51640415 503.47298145 C94.19881414 502.94789858 92.88700365 502.4079692 91.58277988 501.85051441 C84.62683969 499.07087563 79.26902841 500.88612706 72.61312962 503.63812733 C71.36928929 504.13692372 70.12513828 504.63494591 68.88070774 505.13226795 C66.95981543 505.90926633 65.0420519 506.69215488 63.12948704 507.48944569 C54.86418919 510.9166767 47.28754921 513.45068168 38.21859837 512.13422108 C33.60098741 509.94693167 31.50005776 507.63370055 29.21859837 503.13422108 C28.84600288 500.48061532 28.84600288 500.48061532 28.84945488 497.56827545 C28.84049516 495.89698799 28.84049516 495.89698799 28.83135444 494.19193715 C28.84009296 492.97307075 28.84883149 491.75420434 28.85783482 490.4984026 C28.85527154 489.19964437 28.85270827 487.90088615 28.85006732 486.56277162 C28.8433585 482.95966897 28.8553603 479.3568338 28.8704015 475.75376523 C28.88335196 471.86765467 28.87897311 467.9815593 28.87669468 464.09543324 C28.87512132 457.36307353 28.88453709 450.63080102 28.9014082 443.89846325 C28.92578511 434.16463676 28.93360213 424.43085246 28.93737217 414.69699875 C28.94393871 398.90464596 28.96390537 383.11233965 28.99228001 367.32001209 C29.01981533 351.97886863 29.04105149 336.63773778 29.05380344 321.29657459 C29.05459161 320.35101061 29.05537978 319.40544663 29.05619184 318.4312292 C29.06010694 313.68763186 29.06389807 308.94403443 29.06762755 304.20043695 C29.09872976 264.84499912 29.15157107 225.48961316 29.21859837 186.13422108 C28.36748478 186.14310352 27.51637119 186.15198597 26.63946629 186.16113758 C18.60637646 186.24138876 10.57342187 186.30223888 2.54002285 186.34146976 C-1.58975398 186.36231713 -5.71919872 186.39058197 -9.84878445 186.43597889 C-13.83641593 186.47953941 -17.8237286 186.50337962 -21.8115797 186.51373005 C-23.33060504 186.52110321 -24.84961353 186.5355015 -26.36850262 186.5571413 C-28.50146925 186.58631283 -30.63312991 186.59017162 -32.76626492 186.58832264 C-33.97871883 186.59720509 -35.19117275 186.60608753 -36.4403677 186.61523914 C-41.41559627 185.89894147 -44.58719758 183.68250446 -47.63217163 179.73470116 C-48.93431906 176.7881992 -49.16101366 174.74050072 -49.16908169 171.5265398 C-49.17898632 170.40951176 -49.18889095 169.29248371 -49.19909573 168.14160633 C-49.19459408 166.92543629 -49.19009243 165.70926624 -49.18545437 164.45624256 C-49.19231762 163.16780949 -49.19918087 161.87937641 -49.2062521 160.55189991 C-49.22418186 157.02250492 -49.22301422 153.49335864 -49.21730971 149.9639318 C-49.21421412 147.00973865 -49.22031521 144.05559301 -49.22634846 141.10140663 C-49.24039472 134.12263975 -49.23883477 127.14399524 -49.22744656 120.16522694 C-49.21599619 112.99034156 -49.22998847 105.81583133 -49.25684303 98.64099544 C-49.27908821 92.46408614 -49.28561676 86.2872938 -49.27976662 80.11034733 C-49.27641303 76.42894333 -49.27870308 72.74777906 -49.29601765 69.06640911 C-49.31453196 64.95002362 -49.30020973 60.83435305 -49.28311062 56.71796131 C-49.29277859 55.51596088 -49.30244656 54.31396046 -49.31240749 53.07553577 C-49.18554399 38.41088133 -43.66440015 25.77378292 -33.74624538 15.00922108 C-24.71917311 6.39491752 -12.62732031 0.02198443 0 0 Z M54.21859837 30.13422108 C54.50132736 30.8642516 54.78405636 31.59428212 55.07535291 32.34643477 C58.49591738 42.09273153 58.78801405 50.87159351 58.7375803 61.09792042 C58.74346515 62.89106025 58.75109718 64.68419504 58.76031137 66.47732085 C58.78047272 71.37351882 58.77604366 76.26942541 58.76740384 81.16564572 C58.76244267 86.45725135 58.78056416 91.74878531 58.7958231 97.04036427 C58.81909887 106.19804329 58.82788525 115.3556432 58.82671452 124.51335049 C58.82504298 137.75369379 58.84540346 150.99393186 58.87106982 164.23424705 C58.9121208 185.71790839 58.93545612 207.20155077 58.94760227 228.68524647 C58.95943628 249.54952282 58.97964369 270.41376348 59.01107883 291.27801991 C59.01398299 293.20846993 59.01398299 293.20846993 59.01694581 295.17791895 C59.02671061 301.6345197 59.03663968 308.09112018 59.04665041 314.54772055 C59.12943258 368.07653655 59.18344353 421.60535406 59.21859837 475.13422108 C59.76186425 474.92644567 60.30513014 474.71867025 60.86485863 474.50459862 C63.3517153 473.55793398 65.84231793 472.62153071 68.33310032 471.68524647 C69.18763042 471.35821987 70.04216053 471.03119328 70.92258549 470.69425678 C84.33803877 465.67654609 93.82938763 468.92031078 106.53109837 474.19672108 C108.65686096 475.07405446 110.78430939 475.94454144 112.92079258 476.7954607 C114.23838259 477.32054358 115.55019309 477.86047295 116.85441685 478.41792774 C123.81035704 481.19756652 129.16816833 479.38231509 135.82406712 476.63031483 C137.06790744 476.13151844 138.31205845 475.63349624 139.55648899 475.1361742 C141.4773813 474.35917583 143.39514483 473.57628728 145.30770969 472.77899647 C160.11146739 466.6405731 169.82206063 467.30342725 184.41122532 473.31610584 C185.46056248 473.75201038 185.46056248 473.75201038 186.53109837 474.19672108 C188.65686096 475.07405446 190.78430939 475.94454144 192.92079258 476.7954607 C194.23838259 477.32054358 195.55019309 477.86047295 196.85441685 478.41792774 C203.81035704 481.19756652 209.16816833 479.38231509 215.82406712 476.63031483 C217.06790744 476.13151844 218.31205845 475.63349624 219.55648899 475.1361742 C221.4773813 474.35917583 223.39514483 473.57628728 225.30770969 472.77899647 C240.11146739 466.6405731 249.82206063 467.30342725 264.41122532 473.31610584 C265.46056248 473.75201038 265.46056248 473.75201038 266.53109837 474.19672108 C268.65686096 475.07405446 270.78430939 475.94454144 272.92079258 476.7954607 C274.23838259 477.32054358 275.55019309 477.86047295 276.85441685 478.41792774 C283.81035704 481.19756652 289.16816833 479.38231509 295.82406712 476.63031483 C297.06790744 476.13151844 298.31205845 475.63349624 299.55648899 475.1361742 C301.4773813 474.35917583 303.39514483 473.57628728 305.30770969 472.77899647 C316.63208455 468.08330982 326.04595147 466.02371496 337.79379368 470.5267992 C338.67647923 470.89224842 339.55916477 471.25769764 340.46859837 471.63422108 C343.35609837 472.78922108 346.24359837 473.94422108 349.21859837 475.13422108 C349.21859837 462.59422108 349.21859837 450.05422108 349.21859837 437.13422108 C344.26859837 437.03109608 339.31859837 436.92797108 334.21859837 436.82172108 C322.99072204 436.50098892 312.11480823 436.17224227 301.21859837 433.13422108 C300.19016819 432.85433338 300.19016819 432.85433338 299.14096165 432.56879139 C273.44673797 425.39380063 252.26280189 410.57592555 234.21859837 391.13422108 C233.88859837 390.47422108 233.55859837 389.81422108 233.21859837 389.13422108 C232.52745347 389.13698646 231.83630857 389.13975183 231.12421989 389.14260101 C214.30690498 389.20885493 197.4896314 389.25849874 180.67221642 389.28965759 C172.53943603 389.3051263 164.40674276 389.32621585 156.27401829 389.36053944 C149.1855082 389.39044173 142.0970612 389.40979606 135.00848979 389.41648656 C131.25514649 389.42039743 127.50198369 389.42958846 123.74869823 389.45141125 C119.55865186 389.47557588 115.36891927 389.47619054 111.17880344 389.47479725 C109.93443012 389.48558308 108.6900568 389.4963689 107.4079752 389.50748158 C106.26519108 389.50335758 105.12240696 389.49923359 103.94499302 389.49498463 C102.95406556 389.49775001 101.9631381 389.50051538 100.94218254 389.50336456 C96.66937746 388.924246 94.04496302 387.20236055 91.42953587 383.82172108 C90.03297357 380.72225378 89.81765841 378.52370887 89.84359837 375.13422108 C89.8319968 373.61828358 89.8319968 373.61828358 89.82016087 372.07172108 C90.3992148 367.80261755 91.84598834 365.29613924 95.12941074 362.51671314 C99.82909693 360.41348095 104.34083446 360.69499509 109.43466282 360.70184803 C110.56680714 360.69165638 111.69895145 360.68146473 112.86540318 360.67096424 C116.60427872 360.64079109 120.34289822 360.63156139 124.08187962 360.62250233 C126.67549081 360.60565891 129.26909382 360.58750913 131.86268711 360.56810474 C137.98947145 360.52542056 144.11618937 360.49590404 150.2430746 360.47278136 C157.22016189 360.44571416 164.19711156 360.40180365 171.17410052 360.35649264 C185.52218908 360.26368773 199.87032811 360.19198803 214.21859837 360.13422108 C214.01112791 359.44556745 213.80365746 358.75691381 213.58990002 358.04739189 C213.18285115 356.69396266 213.18285115 356.69396266 212.76757908 355.31319141 C212.49823362 354.41828778 212.22888817 353.52338415 211.95138073 352.60136223 C211.20579277 350.09110702 210.51212286 347.57448015 209.86703587 345.03656483 C209.65562962 344.21607655 209.44422337 343.39558826 209.22641087 342.5502367 C208.79563092 340.86301525 208.3659875 339.1755033 207.93734837 337.4877367 C207.62410618 336.27440662 207.62410618 336.27440662 207.30453587 335.03656483 C207.11939426 334.30945301 206.93425266 333.58234119 206.74350071 332.83319569 C206.35858675 331.11858599 206.35858675 331.11858599 205.21859837 330.13422108 C203.83860999 330.03322219 202.4535277 330.00071492 201.06985569 329.99619007 C200.17539234 329.99073673 199.28092899 329.98528339 198.35936069 329.9796648 C197.37028217 329.97862247 196.38120365 329.97758015 195.36215305 329.97650623 C194.32640644 329.97142551 193.29065983 329.9663448 192.22352695 329.96111012 C189.96560364 329.9503794 187.70766951 329.94176991 185.44973087 329.93499088 C181.87769531 329.92324155 178.30578284 329.90379841 174.73379612 329.88187122 C164.57463767 329.820126 154.41549039 329.76620531 144.25619602 329.73285389 C138.04985489 329.71192668 131.84373542 329.67663511 125.63752079 329.63209629 C123.2692561 329.61791636 120.90095216 329.60920938 118.53264713 329.60604191 C115.21906906 329.60114199 111.90608044 329.5780058 108.5926218 329.55072498 C107.61164021 329.55373112 106.63065861 329.55673725 105.61995029 329.55983448 C100.68860116 329.4994383 97.18784587 329.406145 93.21859837 326.13422108 C90.3838141 322.47004578 89.8084764 319.72349123 89.84359837 315.13422108 C89.8319968 313.61828358 89.8319968 313.61828358 89.82016087 312.07172108 C90.40201051 307.78200603 91.84398164 305.26391822 95.18678379 302.51671314 C99.61495102 300.49749135 103.70226514 300.69474865 108.51669407 300.70184803 C109.55130268 300.69165638 110.58591129 300.68146473 111.65187168 300.67096424 C115.0660959 300.64080906 118.48003966 300.63156421 121.89437962 300.62250233 C124.26378915 300.60565756 126.63318973 300.5875076 129.00257969 300.56810474 C135.23485614 300.52057693 141.46709632 300.49078536 147.69949436 300.46466541 C154.06075295 300.43487409 160.42188652 300.3883388 166.78305149 300.34320545 C179.26150176 300.25714056 191.73997773 300.18980928 204.21859837 300.13422108 C204.29900364 299.58072987 204.37940891 299.02723866 204.46225071 298.45697498 C204.83665071 295.89065259 205.21510883 293.3249434 205.59359837 290.75922108 C205.71992649 289.88910389 205.84625462 289.0189867 205.97641087 288.12250233 C206.87106407 282.08359323 207.9657546 276.108951 209.21859837 270.13422108 C208.65114305 270.13183272 208.08368773 270.12944437 207.49903679 270.12698364 C193.685853 270.06782444 179.8728457 269.99207995 166.05985069 269.89850616 C159.37994283 269.85375554 152.70011823 269.81450963 146.02011204 269.78778553 C139.5750095 269.76179963 133.13014363 269.72143019 126.68518734 269.67103481 C124.22482017 269.65433427 121.76441204 269.6428399 119.30399609 269.63660717 C115.86097041 269.62700102 112.41855462 269.5989823 108.97567844 269.56659412 C107.95572285 269.56802921 106.93576725 269.5694643 105.88490391 269.57094288 C97.20068691 269.45521281 97.20068691 269.45521281 93.21859837 266.13422108 C90.3838141 262.47004578 89.8084764 259.72349123 89.84359837 255.13422108 C89.8319968 253.61828358 89.8319968 253.61828358 89.82016087 252.07172108 C90.28433895 248.64954539 91.10927286 246.86068548 93.21859837 244.13422108 C96.77209429 241.60322932 99.16693429 240.76365136 103.51152134 240.81624317 C104.55860264 240.82104694 105.60568394 240.82585072 106.68449497 240.83080006 C107.82279255 240.85108768 108.96109013 240.87137531 110.13388157 240.89227772 C111.94449574 240.90590351 111.94449574 240.90590351 113.79168797 240.91980457 C116.41211312 240.94014808 119.03197092 240.96564501 121.65221691 240.99861813 C125.80082326 241.04851956 129.94916781 241.06586472 134.09803867 241.07622242 C135.52077685 241.08017267 136.94351493 241.08416029 138.3662529 241.08818436 C139.43479352 241.09119232 139.43479352 241.09119232 140.52492082 241.09426105 C150.17843826 241.12423572 159.83114571 241.18196218 169.48397923 241.30194569 C176.00293814 241.38271402 182.52065314 241.42057171 189.04012269 241.41030496 C192.48675825 241.40669496 195.9301303 241.42504082 199.37609386 241.4964819 C212.70990065 242.47230168 212.70990065 242.47230168 225.12803364 238.95128727 C228.31001623 235.85129401 229.74308974 232.23717294 231.21859837 228.13422108 C232.89613177 225.84360873 234.75646796 223.95273204 236.71859837 221.88422108 C237.18870335 221.38809315 237.65880833 220.89196522 238.14315891 220.38080311 C239.49530062 218.95922023 240.85667572 217.54643628 242.21859837 216.13422108 C243.20279758 215.05527576 243.20279758 215.05527576 244.20687962 213.95453358 C264.6327815 192.17273671 296.51150313 179.79272465 325.90927219 178.79950428 C328.7062014 178.71188004 331.50334289 178.63519724 334.30062962 178.56000233 C335.75169161 178.51765279 337.20274163 178.47489067 338.65377903 178.43170643 C342.17526016 178.32779028 345.69687032 178.22944921 349.21859837 178.13422108 C349.26539819 162.1220751 349.30062624 146.10995144 349.32222271 130.09775352 C349.33251855 122.6623763 349.34654641 115.22704166 349.36947727 107.79169178 C349.3894631 101.30816221 349.40232709 94.82466349 349.40677536 88.34110397 C349.40937397 84.91072577 349.41544628 81.48043583 349.43005848 78.05008602 C349.44461012 74.21292516 349.44657473 70.37594618 349.44564915 66.53876209 C349.4528397 65.411628 349.46003025 64.2844939 349.4674387 63.12320423 C349.44430381 54.23953473 349.05321668 46.23037849 343.21859837 39.13422108 C334.55029912 30.52783826 325.99224408 29.98086712 314.20886326 30.01396656 C312.5412094 30.01268492 312.5412094 30.01268492 310.83986557 30.01137739 C307.11339163 30.00972988 303.38696268 30.0152321 299.6604929 30.02069569 C296.98969007 30.02097774 294.31888999 30.0208635 291.6480875 30.02025318 C285.89742791 30.01972924 280.14677967 30.02286247 274.39612293 30.02849102 C266.08167492 30.03662362 257.76723239 30.03922305 249.45278083 30.04047901 C235.96260752 30.04266676 222.47244026 30.04931935 208.98227024 30.05878162 C195.87908044 30.0679629 182.77589229 30.07504024 169.67269993 30.07928944 C168.86480047 30.07955216 168.05690101 30.07981488 167.22451974 30.08008557 C163.17146025 30.08139062 159.11840075 30.08265433 155.06534123 30.08389747 C121.44975589 30.09426146 87.83417787 30.11187225 54.21859837 30.13422108 Z M-14.59780788 41.44281483 C-19.31799825 48.18816938 -18.92536025 56.28775521 -18.89492702 64.17865467 C-18.89507305 65.17439503 -18.89521908 66.17013538 -18.89536953 67.19604969 C-18.89467496 70.47494177 -18.88690391 73.75377647 -18.87905788 77.03265858 C-18.87719209 79.31094806 -18.87576895 81.58923794 -18.87477016 83.86752796 C-18.87095774 89.8548745 -18.86113833 95.84219665 -18.85006618 101.82953358 C-18.83802301 109.0182339 -18.83344375 116.20694238 -18.82761288 123.39564991 C-18.81792591 134.3085239 -18.7987604 145.22134444 -18.78140163 156.13422108 C-2.94140163 156.13422108 12.89859837 156.13422108 29.21859837 156.13422108 C29.27680138 138.22504767 29.27680138 138.22504767 29.31625462 120.3158617 C29.32819508 113.00797071 29.34229825 105.70012999 29.36947727 98.39227772 C29.3912595 92.49840654 29.40317838 86.6045893 29.40835285 80.71068096 C29.41203894 78.46570391 29.41923691 76.22072971 29.43005848 73.97577572 C29.44464478 70.82352994 29.44657331 67.67150511 29.44564915 64.51923084 C29.4528397 63.597813 29.46003025 62.67639515 29.4674387 61.72705555 C29.44099923 53.35460644 28.69158295 45.79055368 23.21859837 39.13422108 C17.62832799 33.5838812 12.96794828 30.86085455 4.90609837 30.69672108 C-4.10288417 30.85941151 -9.10458316 34.55023204 -14.59780788 41.44281483 Z M262.46859837 238.44672108 C241.79372587 259.84281006 234.63718778 285.28884995 234.93734837 314.25531483 C235.16696929 322.66747738 236.61546151 330.16264788 239.21859837 338.13422108 C239.58082493 339.27633045 239.94305149 340.41843983 240.31625462 341.59515858 C248.81908748 365.86426119 267.56880399 384.99075227 289.96859837 396.88422108 C313.96489932 408.29967992 340.84022234 410.08290683 366.08969212 401.66937733 C392.39020235 392.22705281 412.52102072 373.05687052 424.64828587 347.89984608 C434.22974529 325.96241874 435.64619642 299.87971806 428.21859837 277.13422108 C427.8563718 275.9921117 427.49414524 274.85000233 427.12094212 273.67328358 C418.61810925 249.40418097 399.86839274 230.27768988 377.46859837 218.38422108 C337.67928472 199.45575068 293.80537127 208.54422488 262.46859837 238.44672108 Z "  transform="translate(48.78140163421631,-0.13422107696533203)"/>
<path d="M0 0 C2.56742821 1.97398373 4.08177509 3.40144719 4.98046875 6.546875 C5.98221687 9.10736471 5.98221687 9.10736471 8.35546875 9.65625 C9.22171875 9.86765625 10.08796875 10.0790625 10.98046875 10.296875 C16.47865328 11.6813672 19.27805491 14.12828795 22.23046875 18.921875 C23.90666275 23.95045699 23.8368961 28.26217911 22.04296875 33.171875 C19.69147666 36.7396561 17.04604718 39.01408579 13.23046875 40.921875 C11.46507981 41.05135628 9.69537333 41.12429509 7.92578125 41.16796875 C6.33830078 41.21727539 6.33830078 41.21727539 4.71875 41.26757812 C2.48447267 41.32856014 0.25009221 41.38587818 -1.984375 41.43945312 C-3.04527344 41.47361328 -4.10617187 41.50777344 -5.19921875 41.54296875 C-6.17101074 41.5680249 -7.14280273 41.59308105 -8.14404297 41.61889648 C-10.85461752 41.93169386 -12.5266113 42.37491139 -14.76953125 43.921875 C-15.58537693 46.98095913 -15.58537693 46.98095913 -15.76953125 49.921875 C-12.43008984 52.74720725 -9.22530799 54.85296389 -5.27734375 56.7265625 C-4.24222656 57.22800781 -3.20710938 57.72945313 -2.140625 58.24609375 C0.01404052 59.27545863 2.17028184 60.30153187 4.328125 61.32421875 C14.86631597 66.44276865 22.84981514 72.34314874 27.26953125 83.55859375 C30.59477452 94.45109622 30.31085812 105.07497237 25.01171875 115.265625 C21.22561454 121.40752738 15.78495388 127.93742076 9.04296875 130.875 C7.05438909 131.78008345 7.05438909 131.78008345 6.39453125 133.91015625 C6.21664062 134.67714844 6.03875 135.44414062 5.85546875 136.234375 C4.41189513 141.0359942 2.57878812 143.21443087 -1.76953125 145.921875 C-6.20314889 147.95161135 -9.75112345 148.2351516 -14.45703125 146.921875 C-18.98869969 145.16869066 -21.0942082 142.93485957 -23.76953125 138.921875 C-24.09953125 137.931875 -24.42953125 136.941875 -24.76953125 135.921875 C-26.90789096 135.15066178 -26.90789096 135.15066178 -29.45703125 134.671875 C-34.94117076 133.19477152 -37.81033741 130.72647016 -40.76953125 125.921875 C-42.44572525 120.89329301 -42.3759586 116.58157089 -40.58203125 111.671875 C-38.23053916 108.1040939 -35.58510968 105.82966421 -31.76953125 103.921875 C-29.93051165 103.81577069 -28.08805881 103.7664883 -26.24609375 103.74609375 C-25.14265625 103.72224609 -24.03921875 103.69839844 -22.90234375 103.67382812 C-20.57179847 103.6310063 -18.24101252 103.59967613 -15.91015625 103.58007812 C-14.80414063 103.55236328 -13.698125 103.52464844 -12.55859375 103.49609375 C-11.54490723 103.48151123 -10.5312207 103.46692871 -9.48681641 103.4519043 C-6.08763585 102.78886557 -4.87783479 101.61996821 -2.76953125 98.921875 C-2.29200448 96.37870762 -2.29200448 96.37870762 -3.76953125 93.921875 C-9.94882672 89.15848177 -17.4174315 86.06085965 -24.43554688 82.75976562 C-34.30302374 77.97302169 -41.70169854 71.70678884 -45.80859375 61.28515625 C-49.13383702 50.39265378 -48.84992062 39.76877763 -43.55078125 29.578125 C-39.76467704 23.43622262 -34.32401638 16.90632924 -27.58203125 13.96875 C-25.59345159 13.06366655 -25.59345159 13.06366655 -24.93359375 10.93359375 C-24.75570313 10.16660156 -24.5778125 9.39960938 -24.39453125 8.609375 C-22.88723624 3.56885082 -21.21558111 1.74340664 -16.76953125 -1.078125 C-10.68543488 -3.66949938 -5.62967868 -3.4300029 0 0 Z "  transform="translate(391.76953125,235.078125)"/>
<path d="M0 0 C1.67592728 -0.01485695 1.67592728 -0.01485695 3.38571167 -0.03001404 C4.60195724 -0.02551239 5.81820282 -0.02101074 7.07130432 -0.01637268 C8.35962158 -0.02323593 9.64793884 -0.03009918 10.97529602 -0.03717041 C14.50222218 -0.05509324 18.02889942 -0.05393515 21.55585742 -0.04822803 C24.50316023 -0.04513479 27.45041532 -0.05123013 30.39771134 -0.05726677 C37.35226328 -0.07130758 44.30669237 -0.06975453 51.26124573 -0.05836487 C58.42943366 -0.04688455 65.59724742 -0.06095859 72.76538604 -0.08776134 C78.92606596 -0.10993226 85.08662854 -0.1165526 91.24734551 -0.11068493 C94.92408685 -0.10731737 98.60058837 -0.1097167 102.27729607 -0.12693596 C106.37814329 -0.14530386 110.47826447 -0.13120385 114.57911682 -0.11402893 C115.79333817 -0.1236969 117.00755951 -0.13336487 118.25857544 -0.14332581 C124.58121767 -0.08781516 128.63311299 0.03669418 133.38990784 4.38768005 C137.44621182 9.61027863 137.16388327 15.04108148 136.38990784 21.38768005 C134.20253145 26.00547465 131.88966667 28.10647891 127.38990784 30.38768005 C124.71431828 30.76799679 124.71431828 30.76799679 121.77981567 30.77536011 C120.1038884 30.79021706 120.1038884 30.79021706 118.394104 30.80537415 C117.17785843 30.8008725 115.96161285 30.79637085 114.70851135 30.79173279 C113.42019409 30.79859604 112.13187683 30.80545929 110.80451965 30.81253052 C107.2775935 30.83045335 103.75091625 30.82929525 100.22395825 30.82358813 C97.27665544 30.8204949 94.32940035 30.82659024 91.38210434 30.83262688 C84.4275524 30.84666769 77.47312331 30.84511464 70.51856995 30.83372498 C63.35038201 30.82224466 56.18256826 30.8363187 49.01442963 30.86312145 C42.85374971 30.88529237 36.69318714 30.8919127 30.53247017 30.88604504 C26.85572882 30.88267748 23.17922731 30.88507681 19.50251961 30.90229607 C15.40167238 30.92066397 11.3015512 30.90656396 7.20069885 30.88938904 C5.98647751 30.89905701 4.77225616 30.90872498 3.52124023 30.91868591 C-2.801402 30.86317527 -6.85329732 30.73866592 -11.61009216 26.38768005 C-15.66639614 21.16508148 -15.3840676 15.73427863 -14.61009216 9.38768005 C-11.51989976 2.86394053 -7.17607775 0.01800637 0 0 Z "  transform="translate(152.61009216308594,179.61231994628906)"/>
<path d="M0 0 C1.67592728 -0.01485695 1.67592728 -0.01485695 3.38571167 -0.03001404 C4.60195724 -0.02551239 5.81820282 -0.02101074 7.07130432 -0.01637268 C8.35962158 -0.02323593 9.64793884 -0.03009918 10.97529602 -0.03717041 C14.50222218 -0.05509324 18.02889942 -0.05393515 21.55585742 -0.04822803 C24.50316023 -0.04513479 27.45041532 -0.05123013 30.39771134 -0.05726677 C37.35226328 -0.07130758 44.30669237 -0.06975453 51.26124573 -0.05836487 C58.42943366 -0.04688455 65.59724742 -0.06095859 72.76538604 -0.08776134 C78.92606596 -0.10993226 85.08662854 -0.1165526 91.24734551 -0.11068493 C94.92408685 -0.10731737 98.60058837 -0.1097167 102.27729607 -0.12693596 C106.37814329 -0.14530386 110.47826447 -0.13120385 114.57911682 -0.11402893 C115.79333817 -0.1236969 117.00755951 -0.13336487 118.25857544 -0.14332581 C124.58121767 -0.08781516 128.63311299 0.03669418 133.38990784 4.38768005 C137.44621182 9.61027863 137.16388327 15.04108148 136.38990784 21.38768005 C134.20253145 26.00547465 131.88966667 28.10647891 127.38990784 30.38768005 C124.71431828 30.76799679 124.71431828 30.76799679 121.77981567 30.77536011 C120.1038884 30.79021706 120.1038884 30.79021706 118.394104 30.80537415 C117.17785843 30.8008725 115.96161285 30.79637085 114.70851135 30.79173279 C113.42019409 30.79859604 112.13187683 30.80545929 110.80451965 30.81253052 C107.2775935 30.83045335 103.75091625 30.82929525 100.22395825 30.82358813 C97.27665544 30.8204949 94.32940035 30.82659024 91.38210434 30.83262688 C84.4275524 30.84666769 77.47312331 30.84511464 70.51856995 30.83372498 C63.35038201 30.82224466 56.18256826 30.8363187 49.01442963 30.86312145 C42.85374971 30.88529237 36.69318714 30.8919127 30.53247017 30.88604504 C26.85572882 30.88267748 23.17922731 30.88507681 19.50251961 30.90229607 C15.40167238 30.92066397 11.3015512 30.90656396 7.20069885 30.88938904 C5.98647751 30.89905701 4.77225616 30.90872498 3.52124023 30.91868591 C-2.801402 30.86317527 -6.85329732 30.73866592 -11.61009216 26.38768005 C-15.66639614 21.16508148 -15.3840676 15.73427863 -14.61009216 9.38768005 C-11.51989976 2.86394053 -7.17607775 0.01800637 0 0 Z "  transform="translate(152.61009216308594,119.61231994628906)"/>
<path d="M0 0 C1.67592728 -0.01485695 1.67592728 -0.01485695 3.38571167 -0.03001404 C4.60195724 -0.02551239 5.81820282 -0.02101074 7.07130432 -0.01637268 C8.35962158 -0.02323593 9.64793884 -0.03009918 10.97529602 -0.03717041 C14.50222218 -0.05509324 18.02889942 -0.05393515 21.55585742 -0.04822803 C24.50316023 -0.04513479 27.45041532 -0.05123013 30.39771134 -0.05726677 C37.35226328 -0.07130758 44.30669237 -0.06975453 51.26124573 -0.05836487 C58.42943366 -0.04688455 65.59724742 -0.06095859 72.76538604 -0.08776134 C78.92606596 -0.10993226 85.08662854 -0.1165526 91.24734551 -0.11068493 C94.92408685 -0.10731737 98.60058837 -0.1097167 102.27729607 -0.12693596 C106.37814329 -0.14530386 110.47826447 -0.13120385 114.57911682 -0.11402893 C115.79333817 -0.1236969 117.00755951 -0.13336487 118.25857544 -0.14332581 C124.58121767 -0.08781516 128.63311299 0.03669418 133.38990784 4.38768005 C137.44621182 9.61027863 137.16388327 15.04108148 136.38990784 21.38768005 C134.20253145 26.00547465 131.88966667 28.10647891 127.38990784 30.38768005 C124.71431828 30.76799679 124.71431828 30.76799679 121.77981567 30.77536011 C120.1038884 30.79021706 120.1038884 30.79021706 118.394104 30.80537415 C117.17785843 30.8008725 115.96161285 30.79637085 114.70851135 30.79173279 C113.42019409 30.79859604 112.13187683 30.80545929 110.80451965 30.81253052 C107.2775935 30.83045335 103.75091625 30.82929525 100.22395825 30.82358813 C97.27665544 30.8204949 94.32940035 30.82659024 91.38210434 30.83262688 C84.4275524 30.84666769 77.47312331 30.84511464 70.51856995 30.83372498 C63.35038201 30.82224466 56.18256826 30.8363187 49.01442963 30.86312145 C42.85374971 30.88529237 36.69318714 30.8919127 30.53247017 30.88604504 C26.85572882 30.88267748 23.17922731 30.88507681 19.50251961 30.90229607 C15.40167238 30.92066397 11.3015512 30.90656396 7.20069885 30.88938904 C5.98647751 30.89905701 4.77225616 30.90872498 3.52124023 30.91868591 C-2.801402 30.86317527 -6.85329732 30.73866592 -11.61009216 26.38768005 C-15.66639614 21.16508148 -15.3840676 15.73427863 -14.61009216 9.38768005 C-11.51989976 2.86394053 -7.17607775 0.01800637 0 0 Z "  transform="translate(152.61009216308594,59.61231994628906)"/>
<path d="M0 0 C2.13599116 0.00850799 4.26930205 -0.02027227 6.4050293 -0.05200195 C7.77547121 -0.05361444 9.14591781 -0.05303553 10.51635742 -0.05004883 C11.75184326 -0.05190186 12.9873291 -0.05375488 14.26025391 -0.05566406 C19.2833497 0.67533671 22.46325954 2.84371297 25.55541992 6.82495117 C27.64345049 11.57433595 27.32697324 16.36852643 26.70776367 21.44604492 C24.52699628 26.04988719 22.23051004 28.22277257 17.70776367 30.44604492 C13.28678664 30.98439508 8.86446954 30.91916459 4.41552734 30.89208984 C2.27953619 30.88358186 0.14622529 30.91236212 -1.98950195 30.9440918 C-3.35994387 30.94570428 -4.73039047 30.94512537 -6.10083008 30.94213867 C-7.33631592 30.9439917 -8.57180176 30.94584473 -9.84472656 30.94775391 C-14.86782236 30.21675314 -18.0477322 28.04837688 -21.13989258 24.06713867 C-23.22792314 19.3177539 -22.9114459 14.52356341 -22.29223633 9.44604492 C-17.59744843 -0.46517398 -9.71340601 -0.05911247 0 0 Z "  transform="translate(341.292236328125,119.553955078125)"/>
<path d="M0 0 C2.13599116 0.00850799 4.26930205 -0.02027227 6.4050293 -0.05200195 C7.77547121 -0.05361444 9.14591781 -0.05303553 10.51635742 -0.05004883 C11.75184326 -0.05190186 12.9873291 -0.05375488 14.26025391 -0.05566406 C19.2833497 0.67533671 22.46325954 2.84371297 25.55541992 6.82495117 C27.64345049 11.57433595 27.32697324 16.36852643 26.70776367 21.44604492 C24.52699628 26.04988719 22.23051004 28.22277257 17.70776367 30.44604492 C13.28678664 30.98439508 8.86446954 30.91916459 4.41552734 30.89208984 C2.27953619 30.88358186 0.14622529 30.91236212 -1.98950195 30.9440918 C-3.35994387 30.94570428 -4.73039047 30.94512537 -6.10083008 30.94213867 C-7.33631592 30.9439917 -8.57180176 30.94584473 -9.84472656 30.94775391 C-14.86782236 30.21675314 -18.0477322 28.04837688 -21.13989258 24.06713867 C-23.22792314 19.3177539 -22.9114459 14.52356341 -22.29223633 9.44604492 C-17.59744843 -0.46517398 -9.71340601 -0.05911247 0 0 Z "  transform="translate(341.292236328125,59.553955078125)"/>
</svg>
